mtllib room2.mtl

v -11.90601 0 -6.115641
v -9.920832 0 -6.115641
v -9.920832 0 0
v -11.90601 0 0
v -11.89601 -4.741254 -0.01000023
v -9.914166 -4.741254 -0.01000023
v -9.914166 -0.01000023 -0.01000023
v -11.89601 -0.01000023 -0.01000023
v -9.914166 -4.741254 -6.10564
v -0.01000023 -4.741254 -6.10564
v -0.01000023 -4.741254 -0.01000023
v -9.914166 -4.741254 -0.01000023
v -11.89601 -4.741254 -0.01000023
v -11.89601 -0.01000023 -0.01000023
v -11.89601 -0.01000023 -6.10564
v -11.89601 -4.741254 -6.10564
v -0.01000023 -4.741254 -0.01000023
v -0.01000023 -2.185091 -0.01000023
v -4.380917 -2.185091 -0.01000023
v -4.380917 -4.605091 -0.01000023
v -6.180917 -4.605091 -0.01000023
v -6.180917 -2.185091 -0.01000023
v -9.914166 -2.185091 -0.01000023
v -9.914166 -4.741254 -0.01000023
v -0.01000023 -2.185091 -0.01000023
v -0.01000023 -0.01000023 -0.01000023
v -9.914166 -0.01000023 -0.01000023
v -9.914166 -2.185091 -0.01000023
v -6.180917 -2.185091 -0.01000023
v -4.380917 -2.185091 -0.01000023
v -0.01000023 -0.01000023 -0.01000023
v -0.01000023 -4.741254 -0.01000023
v -0.01000023 -4.741254 -6.10564
v -0.01000023 -0.01000023 -6.10564
v -11.90601 -4.751255 -6.115641
v -9.920832 -4.751255 -6.115641
v -9.920832 0 -6.115641
v -11.90601 0 -6.115641
v -9.914166 -4.761255 -6.10564
v -0.01000023 -4.761255 -6.10564
v -0.01000023 -4.761255 -0.01000023
v -9.914166 -4.761255 -0.01000023
v -9.920832 -4.751255 0
v 0 -4.751255 0
v 0 -4.751255 -6.115641
v -9.920832 -4.751255 -6.115641
v -11.90601 0 0
v -11.90601 -4.751255 0
v -11.90601 -4.751255 -6.115641
v -11.90601 0 -6.115641
v -9.920832 -4.751255 -6.115641
v 0 -4.751255 -6.115641
v 0 0 -6.115641
v -9.920832 0 -6.115641
v 0 -4.751255 0
v 0 0 0
v 0 0 -6.115641
v 0 -4.751255 -6.115641
v -11.89601 -0.01000023 -0.01000023
v -9.914166 -0.01000023 -0.01000023
v -9.914166 -0.01000023 -6.10564
v -11.89601 -0.01000023 -6.10564
v -9.914166 -0.01000023 -0.01000023
v -0.01000023 -0.01000023 -0.01000023
v -0.01000023 -0.01000023 -6.10564
v -9.914166 -0.01000023 -6.10564
v -11.89601 -0.01000023 -6.10564
v -9.914166 -0.01000023 -6.10564
v -9.914166 -4.741254 -6.10564
v -11.89601 -4.741254 -6.10564
v -9.914166 -0.01000023 -6.10564
v -0.01000023 -0.01000023 -6.10564
v -0.01000023 -4.741254 -6.10564
v -9.914166 -4.741254 -6.10564
v -9.920832 0 -6.115641
v 0 0 -6.115641
v 0 0 0
v -9.920832 0 0
v -11.90601 0 0
v -9.920832 0 0
v -9.920832 -4.751255 0
v -11.90601 -4.751255 0
v -4.380917 -4.605091 0
v -4.380917 -2.185091 0
v 0 -2.185091 0
v 0 -4.751255 0
v -9.920832 -4.751255 0
v -9.920832 -2.185091 0
v -6.180917 -2.185091 0
v -6.180917 -4.605091 0
v -9.920832 0 0
v 0 0 0
v 0 -2.185091 0
v -4.380917 -2.185091 0
v -6.180917 -2.185091 0
v -9.920832 -2.185091 0
v 0 -9.159717 0
v -11.90601 -9.159717 0
v -11.90601 -4.751255 0
v 0 -4.751255 0
v -9.914166 -4.761255 -0.01000023
v -0.01000023 -4.761255 -0.01000023
v -0.01000023 -5.170503 -0.01000023
v -9.914166 -5.170503 -0.01000023
v -11.90601 -9.159717 -6.115641
v 0 -9.159717 -6.115641
v 0 -4.751255 -6.115641
v -11.90601 -4.751255 -6.115641
v -11.90601 -9.159717 0
v -11.90601 -9.159717 -6.115641
v -11.90601 -4.751255 -6.115641
v -11.90601 -4.751255 0
v -9.914166 -9.149716 -0.01000023
v -0.01000023 -9.149716 -0.01000023
v -0.01000023 -4.761255 -0.01000023
v -9.914166 -4.761255 -0.01000023
v -11.89601 -9.149716 -0.01000023
v -9.914166 -9.149716 -0.01000023
v -9.914166 -4.761255 -0.01000023
v -11.89601 -4.761255 -0.01000023
v -11.89601 -4.761255 -6.10564
v -9.914166 -4.761255 -6.10564
v -9.914166 -9.149716 -6.10564
v -11.89601 -9.149716 -6.10564
v -11.89601 -9.149716 -6.10564
v -9.914166 -9.149716 -6.10564
v -9.914166 -9.149716 -0.01000023
v -11.89601 -9.149716 -0.01000023
v -0.01000023 -9.149716 -0.01000023
v -0.01000023 -9.149716 -6.10564
v -0.01000023 -4.761255 -6.10564
v -0.01000023 -4.761255 -0.01000023
v -9.914166 -4.761255 -6.10564
v -0.01000023 -4.761255 -6.10564
v -0.01000023 -9.149716 -6.10564
v -9.914166 -9.149716 -6.10564
v -11.89601 -9.149716 -6.10564
v -11.89601 -9.149716 -0.01000023
v -11.89601 -4.761255 -0.01000023
v -11.89601 -4.761255 -6.10564
v -9.914166 -9.149716 -6.10564
v -0.01000023 -9.149716 -6.10564
v -0.01000023 -9.149716 -0.01000023
v -9.914166 -9.149716 -0.01000023
v -9.914166 -5.170503 -0.01000023
v -0.01000023 -5.170503 -0.01000023
v -0.01000023 -5.170503 -6.10564
v -9.914166 -5.170503 -6.10564
v 0 -9.159717 -6.115641
v -11.90601 -9.159717 -6.115641
v -11.90601 -9.159717 0
v 0 -9.159717 0
v 0 -9.159717 -6.115641
v 0 -9.159717 0
v 0 -4.751255 0
v 0 -4.751255 -6.115641
v -9.914166 -4.761255 -0.01000023
v -0.01000023 -4.761255 -0.01000023
v -0.01000023 -4.761255 -6.10564
v -9.914166 -4.761255 -6.10564
v -9.914166 -5.170503 -6.10564
v -0.01000023 -5.170503 -6.10564
v -0.01000023 -4.761255 -6.10564
v -9.914166 -4.761255 -6.10564
v -0.01000023 -5.170503 -6.10564
v -0.01000023 -5.170503 -0.01000023
v -0.01000023 -4.761255 -0.01000023
v -0.01000023 -4.761255 -6.10564
v -9.914166 -4.761255 -6.10564
v -9.914166 -4.761255 -0.01000023
v -9.914166 -5.170503 -0.01000023
v -9.914166 -5.170503 -6.10564
v -9.914166 -5.489033 -5.376713
v -9.914166 -5.733078 -5.376713
v -11.89601 -5.733078 -5.376713
v -11.89601 -5.489033 -5.376712
v -9.914166 -5.489033 -5.619688
v -9.914166 -5.489033 -5.376713
v -11.89601 -5.489033 -5.376712
v -11.89601 -5.489033 -5.619688
v -9.914165 -8.41758 -2.703979
v -9.914165 -8.173534 -2.703979
v -9.914165 -8.173534 -2.946955
v -9.914165 -9.149716 -2.946955
v -9.914165 -9.149716 -2.703979
v -11.89601 -8.41758 -2.703979
v -11.89601 -9.149716 -2.703979
v -11.89601 -9.149716 -2.946955
v -11.89601 -8.173534 -2.946955
v -11.89601 -8.173534 -2.703979
v -9.914165 -7.197352 -3.918858
v -9.914165 -7.197352 -3.675882
v -11.89601 -7.197352 -3.675882
v -11.89601 -7.197352 -3.918858
v -9.914165 -7.197352 -3.675882
v -9.914165 -7.441398 -3.675882
v -11.89601 -7.441398 -3.675882
v -11.89601 -7.197352 -3.675882
v -9.914166 -6.953306 -4.161835
v -9.914166 -6.709261 -4.161835
v -9.914166 -6.709261 -4.40481
v -9.914166 -9.149716 -4.40481
v -9.914166 -9.149716 -4.161835
v -11.89601 -6.953306 -4.161834
v -11.89601 -9.149716 -4.161834
v -11.89601 -9.149716 -4.40481
v -11.89601 -6.709261 -4.40481
v -11.89601 -6.709261 -4.161834
v -9.914166 -5.977124 -4.890761
v -9.914166 -6.221169 -4.890761
v -11.89601 -6.221169 -4.89076
v -11.89601 -5.977124 -4.89076
v -9.914166 -5.977124 -5.133738
v -9.914166 -5.977124 -4.890761
v -11.89601 -5.977124 -4.89076
v -11.89601 -5.977124 -5.133738
v -9.914166 -5.489033 -5.619688
v -9.914166 -5.244987 -5.619688
v -9.914166 -5.244987 -5.862664
v -9.914166 -9.149716 -5.862665
v -9.914166 -9.149716 -5.619689
v -11.89601 -5.489033 -5.619688
v -11.89601 -9.149716 -5.619688
v -11.89601 -9.149716 -5.862664
v -11.89601 -5.244987 -5.862663
v -11.89601 -5.244987 -5.619688
v -9.914165 -8.173534 -2.703979
v -9.914165 -8.41758 -2.703979
v -11.89601 -8.41758 -2.703979
v -11.89601 -8.173534 -2.703979
v -9.914165 -8.173534 -2.946955
v -9.914165 -8.173534 -2.703979
v -11.89601 -8.173534 -2.703979
v -11.89601 -8.173534 -2.946955
v -11.89601 -6.221169 -4.89076
v -11.89601 -9.149716 -4.89076
v -11.89601 -9.149716 -5.133738
v -11.89601 -5.977124 -5.133738
v -11.89601 -5.977124 -4.89076
v -9.914166 -6.221169 -4.890761
v -9.914166 -5.977124 -4.890761
v -9.914166 -5.977124 -5.133738
v -9.914166 -9.149716 -5.133738
v -9.914166 -9.149716 -4.890761
v -9.914165 -7.685443 -3.189931
v -9.914165 -7.929489 -3.189931
v -11.89601 -7.929489 -3.18993
v -11.89601 -7.685443 -3.18993
v -9.914165 -7.685443 -3.432907
v -9.914165 -7.685443 -3.189931
v -11.89601 -7.685443 -3.18993
v -11.89601 -7.685443 -3.432906
v -11.89601 -5.733078 -5.376713
v -11.89601 -9.149716 -5.376713
v -11.89601 -9.149716 -5.619688
v -11.89601 -5.489033 -5.619688
v -11.89601 -5.489033 -5.376712
v -9.914166 -5.733078 -5.376713
v -9.914166 -5.489033 -5.376713
v -9.914166 -5.489033 -5.619688
v -9.914166 -9.149716 -5.619689
v -9.914166 -9.149716 -5.376713
v -9.914166 -6.953306 -4.161835
v -9.914165 -6.953306 -3.918858
v -11.89601 -6.953306 -3.918858
v -11.89601 -6.953306 -4.161834
v -9.914165 -6.953306 -3.918858
v -9.914165 -7.197352 -3.918858
v -11.89601 -7.197352 -3.918858
v -11.89601 -6.953306 -3.918858
v -11.89601 -8.661625 -2.461003
v -11.89601 -9.149716 -2.461003
v -11.89601 -9.149716 -2.703979
v -11.89601 -8.41758 -2.703979
v -11.89601 -8.41758 -2.461003
v -9.914165 -8.661625 -2.461003
v -9.914165 -8.41758 -2.461003
v -9.914165 -8.41758 -2.703979
v -9.914165 -9.149716 -2.703979
v -9.914165 -9.149716 -2.461003
v -9.914165 -8.41758 -2.703979
v -9.914165 -8.41758 -2.461003
v -11.89601 -8.41758 -2.461003
v -11.89601 -8.41758 -2.703979
v -9.914165 -8.41758 -2.461003
v -9.914165 -8.661625 -2.461003
v -11.89601 -8.661625 -2.461003
v -11.89601 -8.41758 -2.461003
v -11.89601 -9.149716 -1.975051
v -11.89601 -9.149716 -2.218027
v -11.89601 -8.905671 -2.218027
v -11.89601 -8.905671 -1.975051
v -9.914165 -9.149716 -1.975052
v -9.914165 -8.905671 -1.975052
v -9.914165 -8.905671 -2.218027
v -9.914165 -9.149716 -2.218027
v -9.914165 -8.905671 -2.218027
v -9.914165 -8.905671 -1.975052
v -11.89601 -8.905671 -1.975051
v -11.89601 -8.905671 -2.218027
v -9.914165 -8.905671 -1.975052
v -9.914165 -9.149716 -1.975052
v -11.89601 -9.149716 -1.975051
v -11.89601 -8.905671 -1.975051
v -9.914165 -7.929489 -3.189931
v -9.914165 -7.685443 -3.189931
v -9.914165 -7.685443 -3.432907
v -9.914165 -9.149716 -3.432907
v -9.914165 -9.149716 -3.189931
v -11.89601 -7.929489 -3.18993
v -11.89601 -9.149716 -3.18993
v -11.89601 -9.149716 -3.432906
v -11.89601 -7.685443 -3.432906
v -11.89601 -7.685443 -3.18993
v -9.914166 -6.465215 -4.40481
v -9.914166 -6.709261 -4.40481
v -11.89601 -6.709261 -4.40481
v -11.89601 -6.465215 -4.40481
v -9.914166 -6.465215 -4.647785
v -9.914166 -6.465215 -4.40481
v -11.89601 -6.465215 -4.40481
v -11.89601 -6.465215 -4.647785
v -11.89601 -8.173534 -2.946955
v -11.89601 -9.149716 -2.946955
v -11.89601 -9.149716 -3.18993
v -11.89601 -7.929489 -3.18993
v -11.89601 -7.929489 -2.946955
v -9.914165 -8.173534 -2.946955
v -9.914165 -7.929489 -2.946955
v -9.914165 -7.929489 -3.189931
v -9.914165 -9.149716 -3.189931
v -9.914165 -9.149716 -2.946955
v -9.914165 -7.929489 -3.189931
v -9.914165 -7.929489 -2.946955
v -11.89601 -7.929489 -2.946955
v -11.89601 -7.929489 -3.18993
v -9.914165 -7.929489 -2.946955
v -9.914165 -8.173534 -2.946955
v -11.89601 -8.173534 -2.946955
v -11.89601 -7.929489 -2.946955
v -9.914166 -6.709261 -4.40481
v -9.914166 -6.465215 -4.40481
v -9.914166 -6.465215 -4.647785
v -9.914166 -9.149716 -4.647785
v -9.914166 -9.149716 -4.40481
v -11.89601 -6.709261 -4.40481
v -11.89601 -9.149716 -4.40481
v -11.89601 -9.149716 -4.647785
v -11.89601 -6.465215 -4.647785
v -11.89601 -6.465215 -4.40481
v -9.914166 -5.244987 -5.862664
v -9.914166 -5.244987 -5.619688
v -11.89601 -5.244987 -5.619688
v -11.89601 -5.244987 -5.862663
v -9.914166 -5.244987 -5.619688
v -9.914166 -5.489033 -5.619688
v -11.89601 -5.489033 -5.619688
v -11.89601 -5.244987 -5.619688
v -9.914165 -7.441398 -3.675882
v -9.914165 -7.197352 -3.675882
v -9.914165 -7.197352 -3.918858
v -9.914165 -9.149716 -3.918859
v -9.914165 -9.149716 -3.675882
v -11.89601 -7.441398 -3.675882
v -11.89601 -9.149716 -3.675882
v -11.89601 -9.149716 -3.918858
v -11.89601 -7.197352 -3.918858
v -11.89601 -7.197352 -3.675882
v -9.914166 -6.709261 -4.40481
v -9.914166 -6.709261 -4.161835
v -11.89601 -6.709261 -4.161834
v -11.89601 -6.709261 -4.40481
v -9.914166 -6.709261 -4.161835
v -9.914166 -6.953306 -4.161835
v -11.89601 -6.953306 -4.161834
v -11.89601 -6.709261 -4.161834
v -11.89601 -7.197352 -3.918858
v -11.89601 -9.149716 -3.918858
v -11.89601 -9.149716 -4.161834
v -11.89601 -6.953306 -4.161834
v -11.89601 -6.953306 -3.918858
v -9.914165 -7.197352 -3.918858
v -9.914165 -6.953306 -3.918858
v -9.914166 -6.953306 -4.161835
v -9.914166 -9.149716 -4.161835
v -9.914165 -9.149716 -3.918859
v -9.914165 -7.441398 -3.432907
v -9.914165 -7.685443 -3.432907
v -11.89601 -7.685443 -3.432906
v -11.89601 -7.441398 -3.432906
v -9.914165 -7.441398 -3.675882
v -9.914165 -7.441398 -3.432907
v -11.89601 -7.441398 -3.432906
v -11.89601 -7.441398 -3.675882
v -9.914165 -7.685443 -3.432907
v -9.914165 -7.441398 -3.432907
v -9.914165 -7.441398 -3.675882
v -9.914165 -9.149716 -3.675882
v -9.914165 -9.149716 -3.432907
v -11.89601 -7.685443 -3.432906
v -11.89601 -9.149716 -3.432906
v -11.89601 -9.149716 -3.675882
v -11.89601 -7.441398 -3.675882
v -11.89601 -7.441398 -3.432906
v -9.914165 -8.661625 -2.461003
v -9.914165 -8.661625 -2.218027
v -11.89601 -8.661625 -2.218027
v -11.89601 -8.661625 -2.461003
v -9.914165 -8.661625 -2.218027
v -9.914165 -8.905671 -2.218027
v -11.89601 -8.905671 -2.218027
v -11.89601 -8.661625 -2.218027
v -9.914166 -5.244987 -5.862664
v -9.914166 -5.000942 -5.862664
v -9.914166 -5.000942 -6.10564
v -9.914166 -9.149716 -6.10564
v -9.914166 -9.149716 -5.862665
v -11.89601 -5.244987 -5.862663
v -11.89601 -9.149716 -5.862664
v -11.89601 -9.149716 -6.10564
v -11.89601 -5.000942 -6.105639
v -11.89601 -5.000942 -5.862663
v -9.914166 -9.149716 -6.10564
v -9.914166 -5.000942 -6.10564
v -11.89601 -5.000942 -6.105639
v -11.89601 -9.149716 -6.10564
v -9.914165 -9.149716 -1.975052
v -9.914165 -9.149716 -2.218027
v -9.914165 -9.149716 -2.461003
v -9.914165 -9.149716 -2.703979
v -9.914165 -9.149716 -2.946955
v -9.914165 -9.149716 -3.189931
v -9.914165 -9.149716 -3.432907
v -9.914165 -9.149716 -3.675882
v -9.914165 -9.149716 -3.918859
v -9.914166 -9.149716 -4.161835
v -9.914166 -9.149716 -4.40481
v -9.914166 -9.149716 -4.647785
v -9.914166 -9.149716 -4.890761
v -9.914166 -9.149716 -5.133738
v -9.914166 -9.149716 -5.376713
v -9.914166 -9.149716 -5.619689
v -9.914166 -9.149716 -5.862665
v -9.914166 -9.149716 -6.10564
v -11.89601 -9.149716 -6.10564
v -11.89601 -9.149716 -5.862664
v -11.89601 -9.149716 -5.619688
v -11.89601 -9.149716 -5.376713
v -11.89601 -9.149716 -5.133738
v -11.89601 -9.149716 -4.89076
v -11.89601 -9.149716 -4.647785
v -11.89601 -9.149716 -4.40481
v -11.89601 -9.149716 -4.161834
v -11.89601 -9.149716 -3.918858
v -11.89601 -9.149716 -3.675882
v -11.89601 -9.149716 -3.432906
v -11.89601 -9.149716 -3.18993
v -11.89601 -9.149716 -2.946955
v -11.89601 -9.149716 -2.703979
v -11.89601 -9.149716 -2.461003
v -11.89601 -9.149716 -2.218027
v -11.89601 -9.149716 -1.975051
v -11.89601 -8.905671 -2.218027
v -11.89601 -9.149716 -2.218027
v -11.89601 -9.149716 -2.461003
v -11.89601 -8.661625 -2.461003
v -11.89601 -8.661625 -2.218027
v -9.914165 -8.905671 -2.218027
v -9.914165 -8.661625 -2.218027
v -9.914165 -8.661625 -2.461003
v -9.914165 -9.149716 -2.461003
v -9.914165 -9.149716 -2.218027
v -9.914166 -6.221169 -4.890761
v -9.914166 -6.221169 -4.647785
v -11.89601 -6.221169 -4.647785
v -11.89601 -6.221169 -4.89076
v -9.914166 -6.221169 -4.647785
v -9.914166 -6.465215 -4.647785
v -11.89601 -6.465215 -4.647785
v -11.89601 -6.221169 -4.647785
v -9.914166 -6.465215 -4.647785
v -9.914166 -6.221169 -4.647785
v -9.914166 -6.221169 -4.890761
v -9.914166 -9.149716 -4.890761
v -9.914166 -9.149716 -4.647785
v -11.89601 -6.465215 -4.647785
v -11.89601 -9.149716 -4.647785
v -11.89601 -9.149716 -4.89076
v -11.89601 -6.221169 -4.89076
v -11.89601 -6.221169 -4.647785
v -9.914166 -5.733078 -5.376713
v -9.914166 -5.733078 -5.133738
v -11.89601 -5.733078 -5.133738
v -11.89601 -5.733078 -5.376713
v -9.914166 -5.733078 -5.133738
v -9.914166 -5.977124 -5.133738
v -11.89601 -5.977124 -5.133738
v -11.89601 -5.733078 -5.133738
v -11.89601 -5.977124 -5.133738
v -11.89601 -9.149716 -5.133738
v -11.89601 -9.149716 -5.376713
v -11.89601 -5.733078 -5.376713
v -11.89601 -5.733078 -5.133738
v -9.914166 -5.977124 -5.133738
v -9.914166 -5.733078 -5.133738
v -9.914166 -5.733078 -5.376713
v -9.914166 -9.149716 -5.376713
v -9.914166 -9.149716 -5.133738
v -9.914166 -5.000942 -5.862664
v -9.914166 -5.244987 -5.862664
v -11.89601 -5.244987 -5.862663
v -11.89601 -5.000942 -5.862663
v -9.914166 -5.000942 -6.10564
v -9.914166 -5.000942 -5.862664
v -11.89601 -5.000942 -5.862663
v -11.89601 -5.000942 -6.105639
v -6.180917 -2.185091 -0.01000023
v -6.180917 -2.185091 0
v -4.380917 -2.185091 0
v -4.380917 -2.185091 -0.01000023
v -6.180917 -4.605091 0
v -6.180917 -4.605091 -0.01000023
v -4.380917 -4.605091 -0.01000023
v -4.380917 -4.605091 0
v -4.380917 -2.185091 -0.01000023
v -4.380917 -2.185091 0
v -4.380917 -4.605091 0
v -4.380917 -4.605091 -0.01000023
v -6.180917 -2.185091 0
v -6.180917 -2.185091 -0.01000023
v -6.180917 -4.605091 -0.01000023
v -6.180917 -4.605091 0

vn 0 1 0
vn 0 1 0
vn 0 1 0
vn 0 1 0
vn 8.273766E-11 0 -1
vn 8.273766E-11 0 -1
vn 8.273766E-11 0 -1
vn 8.273766E-11 0 -1
vn 0 1 -1.431699E-08
vn 0 1 -1.431699E-08
vn 0 1 -1.431699E-08
vn 0 1 -1.431699E-08
vn 1 -1.122485E-07 0
vn 1 -1.122485E-07 0
vn 1 -1.122485E-07 0
vn 1 -1.122485E-07 0
vn 3.388801E-11 0 -1
vn 3.388801E-11 0 -1
vn 3.388801E-11 0 -1
vn 3.388801E-11 0 -1
vn 3.388801E-11 0 -1
vn 3.388801E-11 0 -1
vn 3.388801E-11 0 -1
vn 3.388801E-11 0 -1
vn 3.039746E-12 0 -1
vn 3.039746E-12 0 -1
vn 3.039746E-12 0 -1
vn 3.039746E-12 0 -1
vn 3.039746E-12 0 -1
vn 3.039746E-12 0 -1
vn -1 -4.667306E-12 0
vn -1 -4.667306E-12 0
vn -1 -4.667306E-12 0
vn -1 -4.667306E-12 0
vn 6.321994E-08 0 -1
vn 6.321994E-08 0 -1
vn 6.321994E-08 0 -1
vn 6.321994E-08 0 -1
vn 0 1 2.002475E-08
vn 0 1 2.002475E-08
vn 0 1 2.002475E-08
vn 0 1 2.002475E-08
vn 0 -1 -2.58714E-08
vn 0 -1 -2.58714E-08
vn 0 -1 -2.58714E-08
vn 0 -1 -2.58714E-08
vn -1 2.782092E-08 0
vn -1 2.782092E-08 0
vn -1 2.782092E-08 0
vn -1 2.782092E-08 0
vn 1.265045E-08 0 -1
vn 1.265045E-08 0 -1
vn 1.265045E-08 0 -1
vn 1.265045E-08 0 -1
vn 1 0 0
vn 1 0 0
vn 1 0 0
vn 1 0 0
vn 0 -1 5.074242E-11
vn 0 -1 5.074242E-11
vn 0 -1 5.074242E-11
vn 0 -1 5.074242E-11
vn 0 -1 1.678217E-11
vn 0 -1 1.678217E-11
vn 0 -1 1.678217E-11
vn 0 -1 1.678217E-11
vn 5.296394E-08 0 1
vn 5.296394E-08 0 1
vn 5.296394E-08 0 1
vn 5.296394E-08 0 1
vn 1.05982E-08 0 1
vn 1.05982E-08 0 1
vn 1.05982E-08 0 1
vn 1.05982E-08 0 1
vn 0 1 0
vn 0 1 0
vn 0 1 0
vn 0 1 0
vn 0 0 1
vn 0 0 1
vn 0 0 1
vn 0 0 1
vn 0 0 1
vn 0 0 1
vn 0 0 1
vn 0 0 1
vn 0 0 1
vn 0 0 1
vn 0 0 1
vn 0 0 1
vn 0 0 1
vn 0 0 1
vn 0 0 1
vn 0 0 1
vn 0 0 1
vn 0 0 1
vn 0 0 1
vn 0 0 1
vn 0 0 1
vn 0 0 1
vn 4.667223E-11 0 1
vn 4.667223E-11 0 1
vn 4.667223E-11 0 1
vn 4.667223E-11 0 1
vn 5.286735E-09 0 -1
vn 5.286735E-09 0 -1
vn 5.286735E-09 0 -1
vn 5.286735E-09 0 -1
vn -1 2.998422E-08 0
vn -1 2.998422E-08 0
vn -1 2.998422E-08 0
vn -1 2.998422E-08 0
vn -4.224801E-11 0 -1
vn -4.224801E-11 0 -1
vn -4.224801E-11 0 -1
vn -4.224801E-11 0 -1
vn -2.111323E-10 0 -1
vn -2.111323E-10 0 -1
vn -2.111323E-10 0 -1
vn -2.111323E-10 0 -1
vn 3.648938E-08 0 1
vn 3.648938E-08 0 1
vn 3.648938E-08 0 1
vn 3.648938E-08 0 1
vn 0 1 6.704798E-08
vn 0 1 6.704798E-08
vn 0 1 6.704798E-08
vn 0 1 6.704798E-08
vn -1 -5.03188E-12 0
vn -1 -5.03188E-12 0
vn -1 -5.03188E-12 0
vn -1 -5.03188E-12 0
vn 7.301603E-09 0 1
vn 7.301603E-09 0 1
vn 7.301603E-09 0 1
vn 7.301603E-09 0 1
vn 1 1.210164E-07 0
vn 1 1.210164E-07 0
vn 1 1.210164E-07 0
vn 1 1.210164E-07 0
vn 0 1 -6.080155E-08
vn 0 1 -6.080155E-08
vn 0 1 -6.080155E-08
vn 0 1 -6.080155E-08
vn 0 -1 4.897177E-09
vn 0 -1 4.897177E-09
vn 0 -1 4.897177E-09
vn 0 -1 4.897177E-09
vn 0 -1 3.549976E-08
vn 0 -1 3.549976E-08
vn 0 -1 3.549976E-08
vn 0 -1 3.549976E-08
vn 1 0 0
vn 1 0 0
vn 1 0 0
vn 1 0 0
vn 0 -1 2.002475E-08
vn 0 -1 2.002475E-08
vn 0 -1 2.002475E-08
vn 0 -1 2.002475E-08
vn 1.988956E-09 0 -1
vn 1.988956E-09 0 -1
vn 1.988956E-09 0 -1
vn 1.988956E-09 0 -1
vn 1 5.395797E-11 0
vn 1 5.395797E-11 0
vn 1 5.395797E-11 0
vn 1 5.395797E-11 0
vn -1 -7.276312E-07 0
vn -1 -7.276312E-07 0
vn -1 -7.276312E-07 0
vn -1 -7.276312E-07 0
vn 2.531451E-07 -1.953885E-06 1
vn 2.531451E-07 -1.953885E-06 1
vn 2.531451E-07 -1.953885E-06 1
vn 2.531451E-07 -1.953885E-06 1
vn 0 1 4.502405E-07
vn 0 1 4.502405E-07
vn 0 1 4.502405E-07
vn 0 1 4.502405E-07
vn 1 -2.794574E-08 0
vn 1 -2.794574E-08 0
vn 1 -2.794574E-08 0
vn 1 -2.794574E-08 0
vn 1 -2.794574E-08 0
vn -1 7.889842E-08 0
vn -1 7.889842E-08 0
vn -1 7.889842E-08 0
vn -1 7.889842E-08 0
vn -1 7.889842E-08 0
vn 0 1 -4.131506E-07
vn 0 1 -4.131506E-07
vn 0 1 -4.131506E-07
vn 0 1 -4.131506E-07
vn -7.124974E-09 0 1
vn -7.124974E-09 0 1
vn -7.124974E-09 0 1
vn -7.124974E-09 0 1
vn 1 1.196361E-10 0
vn 1 1.196361E-10 0
vn 1 1.196361E-10 0
vn 1 1.196361E-10 0
vn 1 1.196361E-10 0
vn -1 -1.919737E-07 0
vn -1 -1.919737E-07 0
vn -1 -1.919737E-07 0
vn -1 -1.919737E-07 0
vn -1 -1.919737E-07 0
vn 5.581601E-07 0 1
vn 5.581601E-07 0 1
vn 5.581601E-07 0 1
vn 5.581601E-07 0 1
vn 0 1 -9.178615E-07
vn 0 1 -9.178615E-07
vn 0 1 -9.178615E-07
vn 0 1 -9.178615E-07
vn 1 1.726316E-07 0
vn 1 1.726316E-07 0
vn 1 1.726316E-07 0
vn 1 1.726316E-07 0
vn 1 1.726316E-07 0
vn -1 -2.245106E-07 0
vn -1 -2.245106E-07 0
vn -1 -2.245106E-07 0
vn -1 -2.245106E-07 0
vn -1 -2.245106E-07 0
vn 4.525104E-08 0 1
vn 4.525104E-08 0 1
vn 4.525104E-08 0 1
vn 4.525104E-08 0 1
vn 0 1 -1.186874E-06
vn 0 1 -1.186874E-06
vn 0 1 -1.186874E-06
vn 0 1 -1.186874E-06
vn -1 -1.902363E-08 0
vn -1 -1.902363E-08 0
vn -1 -1.902363E-08 0
vn -1 -1.902363E-08 0
vn -1 -1.902363E-08 0
vn 1 1.06281E-07 0
vn 1 1.06281E-07 0
vn 1 1.06281E-07 0
vn 1 1.06281E-07 0
vn 1 1.06281E-07 0
vn 5.229539E-07 0 1
vn 5.229539E-07 0 1
vn 5.229539E-07 0 1
vn 5.229539E-07 0 1
vn 0 1 1.812337E-07
vn 0 1 1.812337E-07
vn 0 1 1.812337E-07
vn 0 1 1.812337E-07
vn -1 2.857154E-08 0
vn -1 2.857154E-08 0
vn -1 2.857154E-08 0
vn -1 2.857154E-08 0
vn -1 2.857154E-08 0
vn 1 9.211042E-08 0
vn 1 9.211042E-08 0
vn 1 9.211042E-08 0
vn 1 9.211042E-08 0
vn 1 9.211042E-08 0
vn 0 1 2.709018E-07
vn 0 1 2.709018E-07
vn 0 1 2.709018E-07
vn 0 1 2.709018E-07
vn 2.418621E-08 0 1
vn 2.418621E-08 0 1
vn 2.418621E-08 0 1
vn 2.418621E-08 0 1
vn -1 6.626787E-07 0
vn -1 6.626787E-07 0
vn -1 6.626787E-07 0
vn -1 6.626787E-07 0
vn -1 6.626787E-07 0
vn 1 4.228962E-07 0
vn 1 4.228962E-07 0
vn 1 4.228962E-07 0
vn 1 4.228962E-07 0
vn 1 4.228962E-07 0
vn 0 1 -1.888897E-06
vn 0 1 -1.888897E-06
vn 0 1 -1.888897E-06
vn 0 1 -1.888897E-06
vn 9.123892E-09 0 1
vn 9.123892E-09 0 1
vn 9.123892E-09 0 1
vn 9.123892E-09 0 1
vn -1 1.151818E-06 0
vn -1 1.151818E-06 0
vn -1 1.151818E-06 0
vn -1 1.151818E-06 0
vn 1 -1.117831E-07 0
vn 1 -1.117831E-07 0
vn 1 -1.117831E-07 0
vn 1 -1.117831E-07 0
vn 0 1 7.039264E-07
vn 0 1 7.039264E-07
vn 0 1 7.039264E-07
vn 0 1 7.039264E-07
vn 2.508322E-07 0 1
vn 2.508322E-07 0 1
vn 2.508322E-07 0 1
vn 2.508322E-07 0 1
vn 1 2.114481E-07 0
vn 1 2.114481E-07 0
vn 1 2.114481E-07 0
vn 1 2.114481E-07 0
vn 1 2.114481E-07 0
vn -1 3.313393E-07 0
vn -1 3.313393E-07 0
vn -1 3.313393E-07 0
vn -1 3.313393E-07 0
vn -1 3.313393E-07 0
vn -4.233607E-08 0 1
vn -4.233607E-08 0 1
vn -4.233607E-08 0 1
vn -4.233607E-08 0 1
vn 0 1 -3.414585E-07
vn 0 1 -3.414585E-07
vn 0 1 -3.414585E-07
vn 0 1 -3.414585E-07
vn -1 6.311873E-08 0
vn -1 6.311873E-08 0
vn -1 6.311873E-08 0
vn -1 6.311873E-08 0
vn -1 6.311873E-08 0
vn 1 2.537377E-07 0
vn 1 2.537377E-07 0
vn 1 2.537377E-07 0
vn 1 2.537377E-07 0
vn 1 2.537377E-07 0
vn 0 1 -5.028188E-07
vn 0 1 -5.028188E-07
vn 0 1 -5.028188E-07
vn 0 1 -5.028188E-07
vn -1.303145E-09 0 1
vn -1.303145E-09 0 1
vn -1.303145E-09 0 1
vn -1.303145E-09 0 1
vn 1 1.087599E-10 0
vn 1 1.087599E-10 0
vn 1 1.087599E-10 0
vn 1 1.087599E-10 0
vn 1 1.087599E-10 0
vn -1 3.896117E-08 0
vn -1 3.896117E-08 0
vn -1 3.896117E-08 0
vn -1 3.896117E-08 0
vn -1 3.896117E-08 0
vn 0 1 -8.281961E-07
vn 0 1 -8.281961E-07
vn 0 1 -8.281961E-07
vn 0 1 -8.281961E-07
vn -8.461985E-08 0 1
vn -8.461985E-08 0 1
vn -8.461985E-08 0 1
vn -8.461985E-08 0 1
vn 1 1.585864E-07 0
vn 1 1.585864E-07 0
vn 1 1.585864E-07 0
vn 1 1.585864E-07 0
vn 1 1.585864E-07 0
vn -1 3.944921E-08 0
vn -1 3.944921E-08 0
vn -1 3.944921E-08 0
vn -1 3.944921E-08 0
vn -1 3.944921E-08 0
vn 0 1 9.729324E-07
vn 0 1 9.729324E-07
vn 0 1 9.729324E-07
vn 0 1 9.729324E-07
vn 4.73262E-07 0 1
vn 4.73262E-07 0 1
vn 4.73262E-07 0 1
vn 4.73262E-07 0 1
vn -1 3.794422E-09 3.92497E-06
vn -1 3.794422E-09 3.92497E-06
vn -1 3.794422E-09 3.92497E-06
vn -1 3.794422E-09 3.92497E-06
vn -1 3.794422E-09 3.92497E-06
vn 1 7.725171E-08 -3.924964E-06
vn 1 7.725171E-08 -3.924964E-06
vn 1 7.725171E-08 -3.924964E-06
vn 1 7.725171E-08 -3.924964E-06
vn 1 7.725171E-08 -3.924964E-06
vn 4.99859E-07 0 1
vn 4.99859E-07 0 1
vn 4.99859E-07 0 1
vn 4.99859E-07 0 1
vn 0 1 8.832636E-07
vn 0 1 8.832636E-07
vn 0 1 8.832636E-07
vn 0 1 8.832636E-07
vn 1 -1.5969E-08 0
vn 1 -1.5969E-08 0
vn 1 -1.5969E-08 0
vn 1 -1.5969E-08 0
vn 1 -1.5969E-08 0
vn -1 2.840052E-07 0
vn -1 2.840052E-07 0
vn -1 2.840052E-07 0
vn -1 2.840052E-07 0
vn -1 2.840052E-07 0
vn 0 1 1.369999E-06
vn 0 1 1.369999E-06
vn 0 1 1.369999E-06
vn 0 1 1.369999E-06
vn 3.604038E-08 0 1
vn 3.604038E-08 0 1
vn 3.604038E-08 0 1
vn 3.604038E-08 0 1
vn 1 8.127383E-08 0
vn 1 8.127383E-08 0
vn 1 8.127383E-08 0
vn 1 8.127383E-08 0
vn 1 8.127383E-08 0
vn -1 -1.129257E-07 -1.962485E-06
vn -1 -1.129257E-07 -1.962485E-06
vn -1 -1.129257E-07 -1.962485E-06
vn -1 -1.129257E-07 -1.962485E-06
vn -1 -1.129257E-07 -1.962485E-06
vn -3.49325E-07 1.149344E-07 -1
vn -3.49325E-07 1.149344E-07 -1
vn -3.49325E-07 1.149344E-07 -1
vn -3.49325E-07 1.149344E-07 -1
vn 0 -1 1.115455E-10
vn 0 -1 1.115455E-10
vn 0 -1 1.115455E-10
vn 0 -1 1.115455E-10
vn 0 -1 1.115455E-10
vn 0 -1 1.115455E-10
vn 0 -1 1.115455E-10
vn 0 -1 1.115455E-10
vn 0 -1 1.115455E-10
vn 0 -1 1.115455E-10
vn 0 -1 1.115455E-10
vn 0 -1 1.115455E-10
vn 0 -1 1.115455E-10
vn 0 -1 1.115455E-10
vn 0 -1 1.115455E-10
vn 0 -1 1.115455E-10
vn 0 -1 1.115455E-10
vn 0 -1 1.115455E-10
vn 0 -1 1.115455E-10
vn 0 -1 1.115455E-10
vn 0 -1 1.115455E-10
vn 0 -1 1.115455E-10
vn 0 -1 1.115455E-10
vn 0 -1 1.115455E-10
vn 0 -1 1.115455E-10
vn 0 -1 1.115455E-10
vn 0 -1 1.115455E-10
vn 0 -1 1.115455E-10
vn 0 -1 1.115455E-10
vn 0 -1 1.115455E-10
vn 0 -1 1.115455E-10
vn 0 -1 1.115455E-10
vn 0 -1 1.115455E-10
vn 0 -1 1.115455E-10
vn 0 -1 1.115455E-10
vn 0 -1 1.115455E-10
vn -1 9.940171E-07 0
vn -1 9.940171E-07 0
vn -1 9.940171E-07 0
vn -1 9.940171E-07 0
vn -1 9.940171E-07 0
vn 1 6.343441E-07 0
vn 1 6.343441E-07 0
vn 1 6.343441E-07 0
vn 1 6.343441E-07 0
vn 1 6.343441E-07 0
vn 0 1 3.605717E-07
vn 0 1 3.605717E-07
vn 0 1 3.605717E-07
vn 0 1 3.605717E-07
vn 4.082817E-08 0 1
vn 4.082817E-08 0 1
vn 4.082817E-08 0 1
vn 4.082817E-08 0 1
vn 1 1.151377E-07 0
vn 1 1.151377E-07 0
vn 1 1.151377E-07 0
vn 1 1.151377E-07 0
vn 1 1.151377E-07 0
vn -1 3.571441E-08 0
vn -1 3.571441E-08 0
vn -1 3.571441E-08 0
vn -1 3.571441E-08 0
vn -1 3.571441E-08 0
vn 0 1 -2.338126E-07
vn 0 1 -2.338126E-07
vn 0 1 -2.338126E-07
vn 0 1 -2.338126E-07
vn -1.876867E-08 0 1
vn -1.876867E-08 0 1
vn -1.876867E-08 0 1
vn -1.876867E-08 0 1
vn -1 3.061238E-08 0
vn -1 3.061238E-08 0
vn -1 3.061238E-08 0
vn -1 3.061238E-08 0
vn -1 3.061238E-08 0
vn 1 8.545423E-11 0
vn 1 8.545423E-11 0
vn 1 8.545423E-11 0
vn 1 8.545423E-11 0
vn 1 8.545423E-11 0
vn 5.681109E-07 0 1
vn 5.681109E-07 0 1
vn 5.681109E-07 0 1
vn 5.681109E-07 0 1
vn 0 1 -1.441431E-07
vn 0 1 -1.441431E-07
vn 0 1 -1.441431E-07
vn 0 1 -1.441431E-07
vn 0 -1 -5.985853E-06
vn 0 -1 -5.985853E-06
vn 0 -1 -5.985853E-06
vn 0 -1 -5.985853E-06
vn 0 1 2.230583E-05
vn 0 1 2.230583E-05
vn 0 1 2.230583E-05
vn 0 1 2.230583E-05
vn -1 -6.103247E-08 0
vn -1 -6.103247E-08 0
vn -1 -6.103247E-08 0
vn -1 -6.103247E-08 0
vn 1 1.300322E-08 0
vn 1 1.300322E-08 0
vn 1 1.300322E-08 0
vn 1 1.300322E-08 0

vt 0.6666667 0.25
vt 0.6666667 0.2916844
vt 0.3333333 0.2916844
vt 0.3333333 0.25
vt 0 0.75
vt 0 0.7916844
vt 0.3333333 0.7916844
vt 0.3333333 0.75
vt 0.6110875 0.75
vt 0.3333333 0.75
vt 0.3333333 0.5
vt 0.6110874 0.5
vt 0.6666667 0.5
vt 1 0.5
vt 1 0.75
vt 0.6666667 0.75
vt 0 1
vt 0.1800906 1
vt 0.1800906 0.908066
vt 0.009593207 0.908066
vt 0.009593207 0.8702063
vt 0.1800906 0.8702063
vt 0.1800906 0.7916844
vt 0 0.7916844
vt 0.1800906 1
vt 0.3333333 1
vt 0.3333333 0.7916844
vt 0.1800906 0.7916844
vt 0.1800906 0.8702063
vt 0.1800906 0.908066
vt 0 0.5
vt 0.3333333 0.5
vt 0.3333333 0.75
vt 0 0.75
vt 1 0.25
vt 1 0.2916844
vt 0.6666667 0.2916844
vt 0.6666667 0.25
vt 0.25 1
vt 0.5 1
vt 0.5 0.6666666
vt 0.25 0.6666666
vt 0.6110875 0
vt 0.3333333 0
vt 0.3333333 0.25
vt 0.6110874 0.25
vt 1 0
vt 0.6666667 0
vt 0.6666667 0.25
vt 1 0.25
vt 1 0.2916844
vt 1 0.5
vt 0.6666667 0.5
vt 0.6666667 0.2916844
vt 0.3333333 0
vt 0 0
vt 0 0.25
vt 0.3333333 0.25
vt 0.3333333 0.75
vt 0.3333333 0.7916844
vt 0.6666667 0.7916844
vt 0.6666667 0.75
vt 0.3333333 0.7916844
vt 0.3333333 1
vt 0.6666667 1
vt 0.6666667 0.7916844
vt 0.6666667 0.75
vt 0.6666667 0.7916844
vt 1 0.7916844
vt 1 0.75
vt 0.6666667 0.7916844
vt 0.6666667 1
vt 1 1
vt 1 0.7916844
vt 0.6666667 0.2916844
vt 0.6666667 0.5
vt 0.3333333 0.5
vt 0.3333333 0.2916844
vt 0.3333333 0.25
vt 0.3333333 0.2916844
vt 0 0.2916844
vt 0 0.25
vt 0.01025441 0.4080104
vt 0.1800341 0.4080104
vt 0.1800341 0.5
vt 0 0.5
vt 0 0.2916844
vt 0.1800341 0.2916844
vt 0.1800341 0.3702143
vt 0.01025441 0.3702143
vt 0.3333333 0.2916844
vt 0.3333333 0.5
vt 0.1800341 0.5
vt 0.1800341 0.4080104
vt 0.1800341 0.3702144
vt 0.1800341 0.2916844
vt 1 0
vt 0.6666667 0
vt 0.6666667 0.25
vt 1 0.25
vt 0.25 0.6666666
vt 0.5 0.6666666
vt 0.5 0.3333333
vt 0.25 0.3333333
vt 0.3333333 0
vt 0 0
vt 0 0.25
vt 0.3333333 0.25
vt 0.6666667 0
vt 0.3333333 0
vt 0.3333333 0.25
vt 0.6666667 0.25
vt 0.7222459 0.5
vt 1 0.5
vt 1 0.75
vt 0.7222459 0.75
vt 0.6666667 0.5
vt 0.7222459 0.5
vt 0.7222459 0.75
vt 0.6666667 0.75
vt 0.3333333 0.75
vt 0.2777541 0.75
vt 0.2777541 0.5
vt 0.3333333 0.5
vt 0 1
vt 0.05557921 1
vt 0.05557922 0.75
vt 0 0.75
vt 0.3333333 0.75
vt 0.3333333 1
vt 0.6666667 1
vt 0.6666667 0.75
vt 0.2777541 0.75
vt 0 0.75
vt 0 0.5
vt 0.2777541 0.5
vt 0.3333333 0.5
vt 0.6666667 0.5
vt 0.6666667 0.75
vt 0.3333333 0.75
vt 0.05557921 1
vt 0.3333333 1
vt 0.3333333 0.75
vt 0.05557922 0.75
vt 0.25 0.3333333
vt 0.5 0.3333333
vt 0.5 0
vt 0.25 0
vt 0.3333333 0.5
vt 0 0.5
vt 0 0.25
vt 0.3333333 0.25
vt 0.3333333 0.5
vt 0.3333333 0.25
vt 0.6666667 0.25
vt 0.6666667 0.5
vt 0.9444208 0.75
vt 0.6666667 0.75
vt 0.6666667 1
vt 0.9444208 1
vt 1 0.3333333
vt 0.75 0.3333333
vt 0.75 0.6666667
vt 1 0.6666667
vt 0.75 0.3333333
vt 0.5 0.3333333
vt 0.5 0.6666666
vt 0.75 0.6666667
vt 0 0.6666667
vt 0.25 0.6666666
vt 0.25 0.3333333
vt 0 0.3333333
vt 0.3 0.4264706
vt 0.3 0.4117647
vt 0.7 0.4117647
vt 0.7 0.4264706
vt 0.3 0.4411765
vt 0.3 0.4264706
vt 0.7 0.4264706
vt 0.7 0.4411765
vt 0.05294118 0.7058824
vt 0.05294118 0.6911765
vt 0.07058824 0.6911765
vt 0.07058824 0.75
vt 0.05294118 0.75
vt 0.9470588 0.7058824
vt 0.9470588 0.75
vt 0.9294118 0.75
vt 0.9294118 0.6911765
vt 0.9470588 0.6911765
vt 0.3 0.2352941
vt 0.3 0.2205882
vt 0.7 0.2205882
vt 0.7 0.2352941
vt 0.3 0.2205882
vt 0.3 0.2058824
vt 0.7 0.2058824
vt 0.7 0.2205882
vt 0.1588235 0.6176471
vt 0.1588235 0.6029412
vt 0.1764706 0.6029412
vt 0.1764706 0.75
vt 0.1588235 0.75
vt 0.8411765 0.6176471
vt 0.8411765 0.75
vt 0.8235294 0.75
vt 0.8235294 0.6029412
vt 0.8411765 0.6029412
vt 0.3 0.3676471
vt 0.3 0.3529412
vt 0.7 0.3529412
vt 0.7 0.3676471
vt 0.3 0.3823529
vt 0.3 0.3676471
vt 0.7 0.3676471
vt 0.7 0.3823529
vt 0.2647059 0.5294118
vt 0.2647059 0.5147059
vt 0.282353 0.5147059
vt 0.282353 0.75
vt 0.2647059 0.75
vt 0.7352941 0.5294118
vt 0.7352941 0.75
vt 0.7176471 0.75
vt 0.7176471 0.5147059
vt 0.7352941 0.5147059
vt 0.3 0.1029412
vt 0.3 0.0882353
vt 0.7 0.0882353
vt 0.7 0.1029412
vt 0.3 0.1176471
vt 0.3 0.1029412
vt 0.7 0.1029412
vt 0.7 0.1176471
vt 0.7882353 0.5735294
vt 0.7882353 0.75
vt 0.7705882 0.75
vt 0.7705882 0.5588235
vt 0.7882353 0.5588235
vt 0.2117647 0.5735294
vt 0.2117647 0.5588235
vt 0.2294118 0.5588235
vt 0.2294118 0.75
vt 0.2117647 0.75
vt 0.3 0.1617647
vt 0.3 0.1470588
vt 0.7 0.1470588
vt 0.7 0.1617647
vt 0.3 0.1764706
vt 0.3 0.1617647
vt 0.7 0.1617647
vt 0.7 0.1764706
vt 0.7529412 0.5441176
vt 0.7529412 0.75
vt 0.7352941 0.75
vt 0.7352941 0.5294118
vt 0.7529412 0.5294118
vt 0.2470588 0.5441176
vt 0.2470588 0.5294118
vt 0.2647059 0.5294118
vt 0.2647059 0.75
vt 0.2470588 0.75
vt 0.3 0.2647059
vt 0.3 0.25
vt 0.7 0.25
vt 0.7 0.2647059
vt 0.3 0.25
vt 0.3 0.2352941
vt 0.7 0.2352941
vt 0.7 0.25
vt 0.9647059 0.7205882
vt 0.9647059 0.75
vt 0.9470588 0.75
vt 0.9470588 0.7058824
vt 0.9647059 0.7058824
vt 0.03529412 0.7205882
vt 0.03529412 0.7058824
vt 0.05294118 0.7058824
vt 0.05294118 0.75
vt 0.03529412 0.75
vt 0.3 0.0882353
vt 0.3 0.07352941
vt 0.7 0.07352941
vt 0.7 0.0882353
vt 0.3 0.07352941
vt 0.3 0.05882353
vt 0.7 0.05882353
vt 0.7 0.07352941
vt 1 0.75
vt 0.9823529 0.75
vt 0.9823529 0.7352941
vt 1 0.7352941
vt 0 0.75
vt 0 0.7352941
vt 0.01764706 0.7352941
vt 0.01764706 0.75
vt 0.3 0.02941176
vt 0.3 0.01470588
vt 0.7 0.01470588
vt 0.7 0.02941176
vt 0.3 0.01470588
vt 0.3 0
vt 0.7 0
vt 0.7 0.01470588
vt 0.0882353 0.6764706
vt 0.0882353 0.6617647
vt 0.1058824 0.6617647
vt 0.1058824 0.75
vt 0.0882353 0.75
vt 0.9117647 0.6764706
vt 0.9117647 0.75
vt 0.8941177 0.75
vt 0.8941177 0.6617647
vt 0.9117647 0.6617647
vt 0.3 0.3088235
vt 0.3 0.2941177
vt 0.7 0.2941177
vt 0.7 0.3088235
vt 0.3 0.3235294
vt 0.3 0.3088235
vt 0.7 0.3088235
vt 0.7 0.3235294
vt 0.9294118 0.6911765
vt 0.9294118 0.75
vt 0.9117647 0.75
vt 0.9117647 0.6764706
vt 0.9294118 0.6764706
vt 0.07058824 0.6911765
vt 0.07058824 0.6764706
vt 0.0882353 0.6764706
vt 0.0882353 0.75
vt 0.07058824 0.75
vt 0.3 0.1470588
vt 0.3 0.1323529
vt 0.7 0.1323529
vt 0.7 0.1470588
vt 0.3 0.1323529
vt 0.3 0.1176471
vt 0.7 0.1176471
vt 0.7 0.1323529
vt 0.1764706 0.6029412
vt 0.1764706 0.5882353
vt 0.1941177 0.5882353
vt 0.1941177 0.75
vt 0.1764706 0.75
vt 0.8235294 0.6029412
vt 0.8235294 0.75
vt 0.8058823 0.75
vt 0.8058823 0.5882353
vt 0.8235294 0.5882353
vt 0.3 0.4705882
vt 0.3 0.4558823
vt 0.7 0.4558823
vt 0.7 0.4705882
vt 0.3 0.4558823
vt 0.3 0.4411765
vt 0.7 0.4411765
vt 0.7 0.4558823
vt 0.1235294 0.6470588
vt 0.1235294 0.6323529
vt 0.1411765 0.6323529
vt 0.1411765 0.75
vt 0.1235294 0.75
vt 0.8764706 0.6470588
vt 0.8764706 0.75
vt 0.8588235 0.75
vt 0.8588235 0.6323529
vt 0.8764706 0.6323529
vt 0.3 0.2941177
vt 0.3 0.2794118
vt 0.7 0.2794118
vt 0.7 0.2941177
vt 0.3 0.2794118
vt 0.3 0.2647059
vt 0.7 0.2647059
vt 0.7 0.2794118
vt 0.8588235 0.6323529
vt 0.8588235 0.75
vt 0.8411765 0.75
vt 0.8411765 0.6176471
vt 0.8588235 0.6176471
vt 0.1411765 0.6323529
vt 0.1411765 0.6176471
vt 0.1588235 0.6176471
vt 0.1588235 0.75
vt 0.1411765 0.75
vt 0.3 0.1911765
vt 0.3 0.1764706
vt 0.7 0.1764706
vt 0.7 0.1911765
vt 0.3 0.2058824
vt 0.3 0.1911765
vt 0.7 0.1911765
vt 0.7 0.2058824
vt 0.1058824 0.6617647
vt 0.1058824 0.6470588
vt 0.1235294 0.6470588
vt 0.1235294 0.75
vt 0.1058824 0.75
vt 0.8941177 0.6617647
vt 0.8941177 0.75
vt 0.8764706 0.75
vt 0.8764706 0.6470588
vt 0.8941177 0.6470588
vt 0.3 0.05882353
vt 0.3 0.04411765
vt 0.7 0.04411765
vt 0.7 0.05882353
vt 0.3 0.04411765
vt 0.3 0.02941176
vt 0.7 0.02941176
vt 0.7 0.04411765
vt 0.282353 0.5147059
vt 0.282353 0.5
vt 0.3 0.5
vt 0.3 0.75
vt 0.282353 0.75
vt 0.7176471 0.5147059
vt 0.7176471 0.75
vt 0.7 0.75
vt 0.7 0.5
vt 0.7176471 0.5
vt 0.3 0.75
vt 0.3 0.5
vt 0.7 0.5
vt 0.7 0.75
vt 0.3 1
vt 0.3 0.9852941
vt 0.3 0.9705882
vt 0.3 0.9558824
vt 0.3 0.9411765
vt 0.3 0.9264706
vt 0.3 0.9117647
vt 0.3 0.8970588
vt 0.3 0.8823529
vt 0.3 0.8676471
vt 0.3 0.8529412
vt 0.3 0.8382353
vt 0.3 0.8235294
vt 0.3 0.8088235
vt 0.3 0.7941176
vt 0.3 0.7794118
vt 0.3 0.7647059
vt 0.3 0.75
vt 0.7 0.75
vt 0.7 0.7647059
vt 0.7 0.7794118
vt 0.7 0.7941176
vt 0.7 0.8088235
vt 0.7 0.8235294
vt 0.7 0.8382353
vt 0.7 0.8529412
vt 0.7 0.8676471
vt 0.7 0.8823529
vt 0.7 0.8970588
vt 0.7 0.9117647
vt 0.7 0.9264706
vt 0.7 0.9411765
vt 0.7 0.9558824
vt 0.7 0.9705882
vt 0.7 0.9852941
vt 0.7 1
vt 0.9823529 0.7352941
vt 0.9823529 0.75
vt 0.9647059 0.75
vt 0.9647059 0.7205882
vt 0.9823529 0.7205882
vt 0.01764706 0.7352941
vt 0.01764706 0.7205882
vt 0.03529412 0.7205882
vt 0.03529412 0.75
vt 0.01764706 0.75
vt 0.3 0.3529412
vt 0.3 0.3382353
vt 0.7 0.3382353
vt 0.7 0.3529412
vt 0.3 0.3382353
vt 0.3 0.3235294
vt 0.7 0.3235294
vt 0.7 0.3382353
vt 0.1941177 0.5882353
vt 0.1941177 0.5735294
vt 0.2117647 0.5735294
vt 0.2117647 0.75
vt 0.1941177 0.75
vt 0.8058823 0.5882353
vt 0.8058823 0.75
vt 0.7882353 0.75
vt 0.7882353 0.5735294
vt 0.8058823 0.5735294
vt 0.3 0.4117647
vt 0.3 0.3970588
vt 0.7 0.3970588
vt 0.7 0.4117647
vt 0.3 0.3970588
vt 0.3 0.3823529
vt 0.7 0.3823529
vt 0.7 0.3970588
vt 0.7705882 0.5588235
vt 0.7705882 0.75
vt 0.7529412 0.75
vt 0.7529412 0.5441176
vt 0.7705882 0.5441176
vt 0.2294118 0.5588235
vt 0.2294118 0.5441176
vt 0.2470588 0.5441176
vt 0.2470588 0.75
vt 0.2294118 0.75
vt 0.3 0.4852941
vt 0.3 0.4705882
vt 0.7 0.4705882
vt 0.7 0.4852941
vt 0.3 0.5
vt 0.3 0.4852941
vt 0.7 0.4852941
vt 0.7 0.5
vt 0.25 0.8738739
vt 0.25 0.8693693
vt 0.5 0.8693693
vt 0.5 0.8738739
vt 0.25 0.1306307
vt 0.25 0.1261261
vt 0.5 0.1261261
vt 0.5 0.1306307
vt 0.6554055 0.6666667
vt 0.652027 0.6666667
vt 0.652027 0.3333333
vt 0.6554055 0.3333333
vt 0.09797298 0.6666667
vt 0.09459453 0.6666667
vt 0.09459454 0.3333333
vt 0.09797299 0.3333333

usemtl UModelerX_Gray_URP
f 3/3/3 2/2/2 1/1/1 
f 4/4/4 3/3/3 1/1/1 
f 7/7/7 6/6/6 5/5/5 
f 8/8/8 7/7/7 5/5/5 
f 11/11/11 10/10/10 9/9/9 
f 12/12/12 11/11/11 9/9/9 
f 15/15/15 14/14/14 13/13/13 
f 16/16/16 15/15/15 13/13/13 
f 22/22/22 21/21/21 23/23/23 
f 21/21/21 24/24/24 23/23/23 
f 24/24/24 21/21/21 20/20/20 
f 24/24/24 20/20/20 17/17/17 
f 17/17/17 20/20/20 18/18/18 
f 20/20/20 19/19/19 18/18/18 
f 27/27/27 26/26/26 25/25/25 
f 28/28/28 27/27/27 25/25/25 
f 29/29/29 28/28/28 25/25/25 
f 30/30/30 29/29/29 25/25/25 
f 33/33/33 32/32/32 31/31/31 
f 34/34/34 33/33/33 31/31/31 
f 37/37/37 36/36/36 35/35/35 
f 38/38/38 37/37/37 35/35/35 
f 41/41/41 40/40/40 39/39/39 
f 42/42/42 41/41/41 39/39/39 
f 45/45/45 44/44/44 43/43/43 
f 46/46/46 45/45/45 43/43/43 
f 49/49/49 48/48/48 47/47/47 
f 50/50/50 49/49/49 47/47/47 
f 53/53/53 52/52/52 51/51/51 
f 54/54/54 53/53/53 51/51/51 
f 57/57/57 56/56/56 55/55/55 
f 58/58/58 57/57/57 55/55/55 
f 61/61/61 60/60/60 59/59/59 
f 62/62/62 61/61/61 59/59/59 
f 65/65/65 64/64/64 63/63/63 
f 66/66/66 65/65/65 63/63/63 
f 69/69/69 68/68/68 67/67/67 
f 70/70/70 69/69/69 67/67/67 
f 73/73/73 72/72/72 71/71/71 
f 74/74/74 73/73/73 71/71/71 
f 77/77/77 76/76/76 75/75/75 
f 78/78/78 77/77/77 75/75/75 
f 81/81/81 80/80/80 79/79/79 
f 82/82/82 81/81/81 79/79/79 
f 84/84/84 83/83/83 85/85/85 
f 83/83/83 86/86/86 85/85/85 
f 87/87/87 86/86/86 83/83/83 
f 87/87/87 83/83/83 90/90/90 
f 87/87/87 90/90/90 88/88/88 
f 90/90/90 89/89/89 88/88/88 
f 93/93/93 92/92/92 91/91/91 
f 94/94/94 93/93/93 91/91/91 
f 95/95/95 94/94/94 91/91/91 
f 96/96/96 95/95/95 91/91/91 
f 99/99/99 98/98/98 97/97/97 
f 100/100/100 99/99/99 97/97/97 
f 103/103/103 102/102/102 101/101/101 
f 104/104/104 103/103/103 101/101/101 
f 107/107/107 106/106/106 105/105/105 
f 108/108/108 107/107/107 105/105/105 
f 111/111/111 110/110/110 109/109/109 
f 112/112/112 111/111/111 109/109/109 
f 115/115/115 114/114/114 113/113/113 
f 116/116/116 115/115/115 113/113/113 
f 119/119/119 118/118/118 117/117/117 
f 120/120/120 119/119/119 117/117/117 
f 123/123/123 122/122/122 121/121/121 
f 124/124/124 123/123/123 121/121/121 
f 127/127/127 126/126/126 125/125/125 
f 128/128/128 127/127/127 125/125/125 
f 131/131/131 130/130/130 129/129/129 
f 132/132/132 131/131/131 129/129/129 
f 135/135/135 134/134/134 133/133/133 
f 136/136/136 135/135/135 133/133/133 
f 139/139/139 138/138/138 137/137/137 
f 140/140/140 139/139/139 137/137/137 
f 143/143/143 142/142/142 141/141/141 
f 144/144/144 143/143/143 141/141/141 
f 147/147/147 146/146/146 145/145/145 
f 148/148/148 147/147/147 145/145/145 
f 151/151/151 150/150/150 149/149/149 
f 152/152/152 151/151/151 149/149/149 
f 155/155/155 154/154/154 153/153/153 
f 156/156/156 155/155/155 153/153/153 
f 159/159/159 158/158/158 157/157/157 
f 160/160/160 159/159/159 157/157/157 
f 163/163/163 162/162/162 161/161/161 
f 164/164/164 163/163/163 161/161/161 
f 167/167/167 166/166/166 165/165/165 
f 168/168/168 167/167/167 165/165/165 
f 171/171/171 170/170/170 169/169/169 
f 172/172/172 171/171/171 169/169/169 
f 175/175/175 174/174/174 173/173/173 
f 176/176/176 175/175/175 173/173/173 
f 179/179/179 178/178/178 177/177/177 
f 180/180/180 179/179/179 177/177/177 
f 183/183/183 182/182/182 181/181/181 
f 184/184/184 183/183/183 181/181/181 
f 185/185/185 184/184/184 181/181/181 
f 188/188/188 187/187/187 186/186/186 
f 189/189/189 188/188/188 186/186/186 
f 190/190/190 189/189/189 186/186/186 
f 193/193/193 192/192/192 191/191/191 
f 194/194/194 193/193/193 191/191/191 
f 197/197/197 196/196/196 195/195/195 
f 198/198/198 197/197/197 195/195/195 
f 201/201/201 200/200/200 199/199/199 
f 202/202/202 201/201/201 199/199/199 
f 203/203/203 202/202/202 199/199/199 
f 206/206/206 205/205/205 204/204/204 
f 207/207/207 206/206/206 204/204/204 
f 208/208/208 207/207/207 204/204/204 
f 211/211/211 210/210/210 209/209/209 
f 212/212/212 211/211/211 209/209/209 
f 215/215/215 214/214/214 213/213/213 
f 216/216/216 215/215/215 213/213/213 
f 219/219/219 218/218/218 217/217/217 
f 220/220/220 219/219/219 217/217/217 
f 221/221/221 220/220/220 217/217/217 
f 224/224/224 223/223/223 222/222/222 
f 225/225/225 224/224/224 222/222/222 
f 226/226/226 225/225/225 222/222/222 
f 229/229/229 228/228/228 227/227/227 
f 230/230/230 229/229/229 227/227/227 
f 233/233/233 232/232/232 231/231/231 
f 234/234/234 233/233/233 231/231/231 
f 237/237/237 236/236/236 235/235/235 
f 238/238/238 237/237/237 235/235/235 
f 239/239/239 238/238/238 235/235/235 
f 242/242/242 241/241/241 240/240/240 
f 243/243/243 242/242/242 240/240/240 
f 244/244/244 243/243/243 240/240/240 
f 247/247/247 246/246/246 245/245/245 
f 248/248/248 247/247/247 245/245/245 
f 251/251/251 250/250/250 249/249/249 
f 252/252/252 251/251/251 249/249/249 
f 255/255/255 254/254/254 253/253/253 
f 256/256/256 255/255/255 253/253/253 
f 257/257/257 256/256/256 253/253/253 
f 260/260/260 259/259/259 258/258/258 
f 261/261/261 260/260/260 258/258/258 
f 262/262/262 261/261/261 258/258/258 
f 265/265/265 264/264/264 263/263/263 
f 266/266/266 265/265/265 263/263/263 
f 269/269/269 268/268/268 267/267/267 
f 270/270/270 269/269/269 267/267/267 
f 273/273/273 272/272/272 271/271/271 
f 274/274/274 273/273/273 271/271/271 
f 275/275/275 274/274/274 271/271/271 
f 278/278/278 277/277/277 276/276/276 
f 279/279/279 278/278/278 276/276/276 
f 280/280/280 279/279/279 276/276/276 
f 283/283/283 282/282/282 281/281/281 
f 284/284/284 283/283/283 281/281/281 
f 287/287/287 286/286/286 285/285/285 
f 288/288/288 287/287/287 285/285/285 
f 291/291/291 290/290/290 289/289/289 
f 292/292/292 291/291/291 289/289/289 
f 295/295/295 294/294/294 293/293/293 
f 296/296/296 295/295/295 293/293/293 
f 299/299/299 298/298/298 297/297/297 
f 300/300/300 299/299/299 297/297/297 
f 303/303/303 302/302/302 301/301/301 
f 304/304/304 303/303/303 301/301/301 
f 307/307/307 306/306/306 305/305/305 
f 308/308/308 307/307/307 305/305/305 
f 309/309/309 308/308/308 305/305/305 
f 312/312/312 311/311/311 310/310/310 
f 313/313/313 312/312/312 310/310/310 
f 314/314/314 313/313/313 310/310/310 
f 317/317/317 316/316/316 315/315/315 
f 318/318/318 317/317/317 315/315/315 
f 321/321/321 320/320/320 319/319/319 
f 322/322/322 321/321/321 319/319/319 
f 325/325/325 324/324/324 323/323/323 
f 326/326/326 325/325/325 323/323/323 
f 327/327/327 326/326/326 323/323/323 
f 330/330/330 329/329/329 328/328/328 
f 331/331/331 330/330/330 328/328/328 
f 332/332/332 331/331/331 328/328/328 
f 335/335/335 334/334/334 333/333/333 
f 336/336/336 335/335/335 333/333/333 
f 339/339/339 338/338/338 337/337/337 
f 340/340/340 339/339/339 337/337/337 
f 343/343/343 342/342/342 341/341/341 
f 344/344/344 343/343/343 341/341/341 
f 345/345/345 344/344/344 341/341/341 
f 348/348/348 347/347/347 346/346/346 
f 349/349/349 348/348/348 346/346/346 
f 350/350/350 349/349/349 346/346/346 
f 353/353/353 352/352/352 351/351/351 
f 354/354/354 353/353/353 351/351/351 
f 357/357/357 356/356/356 355/355/355 
f 358/358/358 357/357/357 355/355/355 
f 361/361/361 360/360/360 359/359/359 
f 362/362/362 361/361/361 359/359/359 
f 363/363/363 362/362/362 359/359/359 
f 366/366/366 365/365/365 364/364/364 
f 367/367/367 366/366/366 364/364/364 
f 368/368/368 367/367/367 364/364/364 
f 371/371/371 370/370/370 369/369/369 
f 372/372/372 371/371/371 369/369/369 
f 375/375/375 374/374/374 373/373/373 
f 376/376/376 375/375/375 373/373/373 
f 379/379/379 378/378/378 377/377/377 
f 380/380/380 379/379/379 377/377/377 
f 381/381/381 380/380/380 377/377/377 
f 384/384/384 383/383/383 382/382/382 
f 385/385/385 384/384/384 382/382/382 
f 386/386/386 385/385/385 382/382/382 
f 389/389/389 388/388/388 387/387/387 
f 390/390/390 389/389/389 387/387/387 
f 393/393/393 392/392/392 391/391/391 
f 394/394/394 393/393/393 391/391/391 
f 397/397/397 396/396/396 395/395/395 
f 398/398/398 397/397/397 395/395/395 
f 399/399/399 398/398/398 395/395/395 
f 402/402/402 401/401/401 400/400/400 
f 403/403/403 402/402/402 400/400/400 
f 404/404/404 403/403/403 400/400/400 
f 407/407/407 406/406/406 405/405/405 
f 408/408/408 407/407/407 405/405/405 
f 411/411/411 410/410/410 409/409/409 
f 412/412/412 411/411/411 409/409/409 
f 415/415/415 414/414/414 413/413/413 
f 416/416/416 415/415/415 413/413/413 
f 417/417/417 416/416/416 413/413/413 
f 420/420/420 419/419/419 418/418/418 
f 421/421/421 420/420/420 418/418/418 
f 422/422/422 421/421/421 418/418/418 
f 425/425/425 424/424/424 423/423/423 
f 426/426/426 425/425/425 423/423/423 
f 429/429/429 428/428/428 427/427/427 
f 430/430/430 429/429/429 427/427/427 
f 431/431/431 430/430/430 427/427/427 
f 432/432/432 431/431/431 427/427/427 
f 433/433/433 432/432/432 427/427/427 
f 434/434/434 433/433/433 427/427/427 
f 435/435/435 434/434/434 427/427/427 
f 436/436/436 435/435/435 427/427/427 
f 437/437/437 436/436/436 427/427/427 
f 438/438/438 437/437/437 427/427/427 
f 439/439/439 438/438/438 427/427/427 
f 440/440/440 439/439/439 427/427/427 
f 441/441/441 440/440/440 427/427/427 
f 442/442/442 441/441/441 427/427/427 
f 443/443/443 442/442/442 427/427/427 
f 444/444/444 443/443/443 427/427/427 
f 445/445/445 444/444/444 427/427/427 
f 446/446/446 445/445/445 427/427/427 
f 447/447/447 446/446/446 427/427/427 
f 448/448/448 447/447/447 427/427/427 
f 449/449/449 448/448/448 427/427/427 
f 450/450/450 449/449/449 427/427/427 
f 451/451/451 450/450/450 427/427/427 
f 452/452/452 451/451/451 427/427/427 
f 453/453/453 452/452/452 427/427/427 
f 454/454/454 453/453/453 427/427/427 
f 455/455/455 454/454/454 427/427/427 
f 456/456/456 455/455/455 427/427/427 
f 457/457/457 456/456/456 427/427/427 
f 458/458/458 457/457/457 427/427/427 
f 459/459/459 458/458/458 427/427/427 
f 460/460/460 459/459/459 427/427/427 
f 461/461/461 460/460/460 427/427/427 
f 462/462/462 461/461/461 427/427/427 
f 465/465/465 464/464/464 463/463/463 
f 466/466/466 465/465/465 463/463/463 
f 467/467/467 466/466/466 463/463/463 
f 470/470/470 469/469/469 468/468/468 
f 471/471/471 470/470/470 468/468/468 
f 472/472/472 471/471/471 468/468/468 
f 475/475/475 474/474/474 473/473/473 
f 476/476/476 475/475/475 473/473/473 
f 479/479/479 478/478/478 477/477/477 
f 480/480/480 479/479/479 477/477/477 
f 483/483/483 482/482/482 481/481/481 
f 484/484/484 483/483/483 481/481/481 
f 485/485/485 484/484/484 481/481/481 
f 488/488/488 487/487/487 486/486/486 
f 489/489/489 488/488/488 486/486/486 
f 490/490/490 489/489/489 486/486/486 
f 493/493/493 492/492/492 491/491/491 
f 494/494/494 493/493/493 491/491/491 
f 497/497/497 496/496/496 495/495/495 
f 498/498/498 497/497/497 495/495/495 
f 501/501/501 500/500/500 499/499/499 
f 502/502/502 501/501/501 499/499/499 
f 503/503/503 502/502/502 499/499/499 
f 506/506/506 505/505/505 504/504/504 
f 507/507/507 506/506/506 504/504/504 
f 508/508/508 507/507/507 504/504/504 
f 511/511/511 510/510/510 509/509/509 
f 512/512/512 511/511/511 509/509/509 
f 515/515/515 514/514/514 513/513/513 
f 516/516/516 515/515/515 513/513/513 
f 519/519/519 518/518/518 517/517/517 
f 520/520/520 519/519/519 517/517/517 
f 523/523/523 522/522/522 521/521/521 
f 524/524/524 523/523/523 521/521/521 
f 527/527/527 526/526/526 525/525/525 
f 528/528/528 527/527/527 525/525/525 
f 531/531/531 530/530/530 529/529/529 
f 532/532/532 531/531/531 529/529/529 

