mtllib StagingRoom.mtl

v -0.25 1.75 -0.25
v -1.75 1.75 -0.25
v -1.75 1.75 -1.75
v -0.25 1.75 -1.75
v -0.25 0.25 -1.75
v -1.75 0.25 -1.75
v -1.75 0.25 -0.25
v -0.25 0.25 -0.25
v -0.25 1.75 -0.25
v -0.25 1.75 -1.75
v -0.25 0.25 -1.75
v -0.25 0.25 -0.25
v -1.75 1.75 -0.25
v -0.25 1.75 -0.25
v -0.25 0.25 -0.25
v -1.75 0.25 -0.25
v -1.75 1.75 -1.75
v -1.75 1.75 -0.25
v -1.75 0.25 -0.25
v -1.75 0.25 -1.75
v -0.25 1.75 -1.75
v -1.75 1.75 -1.75
v -1.75 0.25 -1.75
v -0.25 0.25 -1.75
v 0 2 -2
v -2 2 -2
v -2 2 0
v 0 2 0
v 0 0 0
v -2 0 0
v -2 0 -2
v 0 0 -2
v 0 2 -2
v 0 2 0
v 0 0 0
v 0 0 -2
v 0 2 0
v -2 2 0
v -2 0 0
v 0 0 0
v -2 2 0
v -2 2 -2
v -2 0 -2
v -2 0 0
v -2 2 -2
v 0 2 -2
v 0 0 -2
v -2 0 -2

vn 0 -1 0
vn 0 -1 0
vn 0 -1 0
vn 0 -1 0
vn 0 1 0
vn 0 1 0
vn 0 1 0
vn 0 1 0
vn -1 0 0
vn -1 0 0
vn -1 0 0
vn -1 0 0
vn 0 0 -1
vn 0 0 -1
vn 0 0 -1
vn 0 0 -1
vn 1 0 0
vn 1 0 0
vn 1 0 0
vn 1 0 0
vn 0 0 1
vn 0 0 1
vn 0 0 1
vn 0 0 1
vn 0 1 0
vn 0 1 0
vn 0 1 0
vn 0 1 0
vn 0 -1 0
vn 0 -1 0
vn 0 -1 0
vn 0 -1 0
vn 1 0 0
vn 1 0 0
vn 1 0 0
vn 1 0 0
vn 0 0 1
vn 0 0 1
vn 0 0 1
vn 0 0 1
vn -1 0 0
vn -1 0 0
vn -1 0 0
vn -1 0 0
vn 0 0 -1
vn 0 0 -1
vn 0 0 -1
vn 0 0 -1

vt 0.6666667 0.75
vt 1 0.75
vt 1 1
vt 0.6666667 1
vt 0.3333333 1
vt 0 1
vt 0 0.75
vt 0.3333333 0.75
vt 0.6666667 0.75
vt 0.6666667 1
vt 0.3333333 1
vt 0.3333333 0.75
vt 0.6666667 0.75
vt 1 0.75
vt 1 0.5
vt 0.6666667 0.5
vt 0.3333333 0.75
vt 0.6666667 0.75
vt 0.6666667 0.5
vt 0.3333333 0.5
vt 0 0.75
vt 0.3333333 0.75
vt 0.3333333 0.5
vt 0 0.5
vt 0.6666667 0.5
vt 1 0.5
vt 1 0.25
vt 0.6666667 0.25
vt 0.3333333 0.25
vt 0 0.25
vt 0 0.5
vt 0.3333333 0.5
vt 0.6666667 0.5
vt 0.6666667 0.25
vt 0.3333333 0.25
vt 0.3333333 0.5
vt 1 0.25
vt 0.6666667 0.25
vt 0.6666667 0
vt 1 0
vt 0.6666667 0.25
vt 0.3333333 0.25
vt 0.3333333 0
vt 0.6666667 0
vt 0.3333333 0.25
vt 0 0.25
vt 0 0
vt 0.3333333 0

usemtl BuiltIn_Unlit_Basic
f 2/2/2 3/3/3 4/4/4 
f 1/1/1 2/2/2 4/4/4 
f 6/6/6 7/7/7 8/8/8 
f 5/5/5 6/6/6 8/8/8 
f 10/10/10 11/11/11 12/12/12 
f 9/9/9 10/10/10 12/12/12 
f 14/14/14 15/15/15 16/16/16 
f 13/13/13 14/14/14 16/16/16 
f 18/18/18 19/19/19 20/20/20 
f 17/17/17 18/18/18 20/20/20 
f 22/22/22 23/23/23 24/24/24 
f 21/21/21 22/22/22 24/24/24 
f 26/26/26 27/27/27 28/28/28 
f 25/25/25 26/26/26 28/28/28 
f 30/30/30 31/31/31 32/32/32 
f 29/29/29 30/30/30 32/32/32 
f 34/34/34 35/35/35 36/36/36 
f 33/33/33 34/34/34 36/36/36 
f 38/38/38 39/39/39 40/40/40 
f 37/37/37 38/38/38 40/40/40 
f 42/42/42 43/43/43 44/44/44 
f 41/41/41 42/42/42 44/44/44 
f 46/46/46 47/47/47 48/48/48 
f 45/45/45 46/46/46 48/48/48 

