mtllib Gem.mtl

v -0.0440531 0.1071933 0
v -0.0440531 0.09647401 0
v -0.0440531 0.1071933 0
v -0.01361316 0.1071933 -0.04189699
v -0.01361316 0.09647401 -0.04189699
v -0.01361316 0.09647401 -0.04189699
v -0.01361316 0.1071933 -0.04189699
v 0.03563971 0.1071933 -0.02589377
v 0.03563971 0.09647401 -0.02589377
v 0.03563971 0.09647401 -0.02589377
v 0.03563971 0.1071933 -0.02589377
v 0.03563971 0.1071933 0.02589376
v 0.03563971 0.09647401 0.02589376
v 0.03563971 0.09647401 0.02589376
v 0.03563971 0.1071933 0.02589376
v -0.01361316 0.1071933 0.04189699
v -0.01361316 0.09647401 0.04189699
v -0.01361316 0.09647401 0.04189699
v -0.01361316 0.1071933 0.04189699
v -0.0440531 0.1071933 0
v -0.0440531 0.09647401 0
v -0.0440531 0.08575467 0
v -0.0440531 0.09647401 0
v -0.01361316 0.09647401 -0.04189699
v -0.01361316 0.08575467 -0.04189699
v -0.01361316 0.08575467 -0.04189699
v -0.01361316 0.09647401 -0.04189699
v 0.03563971 0.09647401 -0.02589377
v 0.03563971 0.08575467 -0.02589377
v 0.03563971 0.08575467 -0.02589377
v 0.03563971 0.09647401 -0.02589377
v 0.03563971 0.09647401 0.02589376
v 0.03563971 0.08575467 0.02589376
v 0.03563971 0.08575467 0.02589376
v 0.03563971 0.09647401 0.02589376
v -0.01361316 0.09647401 0.04189699
v -0.01361316 0.08575467 0.04189699
v -0.01361316 0.08575467 0.04189699
v -0.01361316 0.09647401 0.04189699
v -0.0440531 0.09647401 0
v -0.0440531 0.08575467 0
v -0.0440531 0.07503534 0
v -0.0440531 0.08575467 0
v -0.01361316 0.08575467 -0.04189699
v -0.01361316 0.07503534 -0.04189699
v -0.01361316 0.07503534 -0.04189699
v -0.01361316 0.08575467 -0.04189699
v 0.03563971 0.08575467 -0.02589377
v 0.03563971 0.07503534 -0.02589377
v 0.03563971 0.07503534 -0.02589377
v 0.03563971 0.08575467 -0.02589377
v 0.03563971 0.08575467 0.02589376
v 0.03563971 0.07503534 0.02589376
v 0.03563971 0.07503534 0.02589376
v 0.03563971 0.08575467 0.02589376
v -0.01361316 0.08575467 0.04189699
v -0.01361316 0.07503534 0.04189699
v -0.01361316 0.07503534 0.04189699
v -0.01361316 0.08575467 0.04189699
v -0.0440531 0.08575467 0
v -0.0440531 0.07503534 0
v -0.0440531 0.064316 0
v -0.0440531 0.07503534 0
v -0.01361316 0.07503534 -0.04189699
v -0.01361316 0.064316 -0.04189699
v -0.01361316 0.064316 -0.04189699
v -0.01361316 0.07503534 -0.04189699
v 0.03563971 0.07503534 -0.02589377
v 0.03563971 0.064316 -0.02589377
v 0.03563971 0.064316 -0.02589377
v 0.03563971 0.07503534 -0.02589377
v 0.03563971 0.07503534 0.02589376
v 0.03563971 0.064316 0.02589376
v 0.03563971 0.064316 0.02589376
v 0.03563971 0.07503534 0.02589376
v -0.01361316 0.07503534 0.04189699
v -0.01361316 0.064316 0.04189699
v -0.01361316 0.064316 0.04189699
v -0.01361316 0.07503534 0.04189699
v -0.0440531 0.07503534 0
v -0.0440531 0.064316 0
v -0.0440531 0.05359667 0
v -0.0440531 0.064316 0
v -0.01361316 0.064316 -0.04189699
v -0.01361316 0.05359667 -0.04189699
v -0.01361316 0.05359667 -0.04189699
v -0.01361316 0.064316 -0.04189699
v 0.03563971 0.064316 -0.02589377
v 0.03563971 0.05359667 -0.02589377
v 0.03563971 0.05359667 -0.02589377
v 0.03563971 0.064316 -0.02589377
v 0.03563971 0.064316 0.02589376
v 0.03563971 0.05359667 0.02589376
v 0.03563971 0.05359667 0.02589376
v 0.03563971 0.064316 0.02589376
v -0.01361316 0.064316 0.04189699
v -0.01361316 0.05359667 0.04189699
v -0.01361316 0.05359667 0.04189699
v -0.01361316 0.064316 0.04189699
v -0.0440531 0.064316 0
v -0.0440531 0.05359667 0
v -0.0440531 0.04287734 0
v -0.0440531 0.05359667 0
v -0.01361316 0.05359667 -0.04189699
v -0.01361316 0.04287734 -0.04189699
v -0.01361316 0.04287734 -0.04189699
v -0.01361316 0.05359667 -0.04189699
v 0.03563971 0.05359667 -0.02589377
v 0.03563971 0.04287734 -0.02589377
v 0.03563971 0.04287734 -0.02589377
v 0.03563971 0.05359667 -0.02589377
v 0.03563971 0.05359667 0.02589376
v 0.03563971 0.04287734 0.02589376
v 0.03563971 0.04287734 0.02589376
v 0.03563971 0.05359667 0.02589376
v -0.01361316 0.05359667 0.04189699
v -0.01361316 0.04287734 0.04189699
v -0.01361316 0.04287734 0.04189699
v -0.01361316 0.05359667 0.04189699
v -0.0440531 0.05359667 0
v -0.0440531 0.04287734 0
v -0.0440531 0.032158 0
v -0.0440531 0.04287734 0
v -0.01361316 0.04287734 -0.04189699
v -0.01361316 0.032158 -0.04189699
v -0.01361316 0.032158 -0.04189699
v -0.01361316 0.04287734 -0.04189699
v 0.03563971 0.04287734 -0.02589377
v 0.03563971 0.032158 -0.02589377
v 0.03563971 0.032158 -0.02589377
v 0.03563971 0.04287734 -0.02589377
v 0.03563971 0.04287734 0.02589376
v 0.03563971 0.032158 0.02589376
v 0.03563971 0.032158 0.02589376
v 0.03563971 0.04287734 0.02589376
v -0.01361316 0.04287734 0.04189699
v -0.01361316 0.032158 0.04189699
v -0.01361316 0.032158 0.04189699
v -0.01361316 0.04287734 0.04189699
v -0.0440531 0.04287734 0
v -0.0440531 0.032158 0
v -0.0440531 0.02143867 0
v -0.0440531 0.032158 0
v -0.01361316 0.032158 -0.04189699
v -0.01361316 0.02143867 -0.04189699
v -0.01361316 0.02143867 -0.04189699
v -0.01361316 0.032158 -0.04189699
v 0.03563971 0.032158 -0.02589377
v 0.03563971 0.02143867 -0.02589377
v 0.03563971 0.02143867 -0.02589377
v 0.03563971 0.032158 -0.02589377
v 0.03563971 0.032158 0.02589376
v 0.03563971 0.02143867 0.02589376
v 0.03563971 0.02143867 0.02589376
v 0.03563971 0.032158 0.02589376
v -0.01361316 0.032158 0.04189699
v -0.01361316 0.02143867 0.04189699
v -0.01361316 0.02143867 0.04189699
v -0.01361316 0.032158 0.04189699
v -0.0440531 0.032158 0
v -0.0440531 0.02143867 0
v -0.0440531 0.01071933 0
v -0.0440531 0.02143867 0
v -0.01361316 0.02143867 -0.04189699
v -0.01361316 0.01071933 -0.04189699
v -0.01361316 0.01071933 -0.04189699
v -0.01361316 0.02143867 -0.04189699
v 0.03563971 0.02143867 -0.02589377
v 0.03563971 0.01071933 -0.02589377
v 0.03563971 0.01071933 -0.02589377
v 0.03563971 0.02143867 -0.02589377
v 0.03563971 0.02143867 0.02589376
v 0.03563971 0.01071933 0.02589376
v 0.03563971 0.01071933 0.02589376
v 0.03563971 0.02143867 0.02589376
v -0.01361316 0.02143867 0.04189699
v -0.01361316 0.01071933 0.04189699
v -0.01361316 0.01071933 0.04189699
v -0.01361316 0.02143867 0.04189699
v -0.0440531 0.02143867 0
v -0.0440531 0.01071933 0
v -0.0440531 0 0
v -0.0440531 0.01071933 0
v -0.01361316 0.01071933 -0.04189699
v -0.01361316 0 -0.04189699
v -0.01361316 0 -0.04189699
v -0.01361316 0.01071933 -0.04189699
v 0.03563971 0.01071933 -0.02589377
v 0.03563971 0 -0.02589377
v 0.03563971 0 -0.02589377
v 0.03563971 0.01071933 -0.02589377
v 0.03563971 0.01071933 0.02589376
v 0.03563971 0 0.02589376
v 0.03563971 0 0.02589376
v 0.03563971 0.01071933 0.02589376
v -0.01361316 0.01071933 0.04189699
v -0.01361316 0 0.04189699
v -0.01361316 0 0.04189699
v -0.01361316 0.01071933 0.04189699
v -0.0440531 0.01071933 0
v -0.0440531 0 0
v -0.0440531 0 0
v -0.01361316 0 -0.04189699
v 0 -0.0440531 0
v -0.01361316 0 -0.04189699
v 0.03563971 0 -0.02589377
v 0 -0.0440531 0
v 0.03563971 0 -0.02589377
v 0.03563971 0 0.02589376
v 0 -0.0440531 0
v 0.03563971 0 0.02589376
v -0.01361316 0 0.04189699
v 0 -0.0440531 0
v -0.01361316 0 0.04189699
v -0.0440531 0 0
v 0 -0.0440531 0
v -0.0440531 0.1179127 0
v -0.01361316 0.1179127 0.04189699
v -0.01361316 0.1071933 0.04189699
v -0.01361316 0.1071933 0.04189699
v -0.01361316 0.1179127 0.04189699
v 0.03563971 0.1179127 0.02589376
v 0.03563971 0.1071933 0.02589376
v 0.03563971 0.1071933 0.02589376
v 0.03563971 0.1179127 0.02589376
v 0.03563971 0.1179127 -0.02589377
v 0.03563971 0.1071933 -0.02589377
v 0.03563971 0.1071933 -0.02589377
v 0.03563971 0.1179127 -0.02589377
v -0.01361316 0.1179127 -0.04189699
v -0.01361316 0.1071933 -0.04189699
v -0.01361316 0.1071933 -0.04189699
v -0.01361316 0.1179127 -0.04189699
v -0.0440531 0.1179127 0
v -0.0440531 0.1071933 0
v -0.0440531 0.1179127 0
v -0.0440531 0.128632 0
v -0.01361316 0.128632 0.04189699
v -0.01361316 0.1179127 0.04189699
v -0.01361316 0.1179127 0.04189699
v -0.01361316 0.128632 0.04189699
v 0.03563971 0.128632 0.02589376
v 0.03563971 0.1179127 0.02589376
v 0.03563971 0.1179127 0.02589376
v 0.03563971 0.128632 0.02589376
v 0.03563971 0.128632 -0.02589377
v 0.03563971 0.1179127 -0.02589377
v 0.03563971 0.1179127 -0.02589377
v 0.03563971 0.128632 -0.02589377
v -0.01361316 0.128632 -0.04189699
v -0.01361316 0.1179127 -0.04189699
v -0.01361316 0.1179127 -0.04189699
v -0.01361316 0.128632 -0.04189699
v -0.0440531 0.128632 0
v -0.0440531 0.1179127 0
v 0 0.1726851 0
v -0.01361316 0.128632 0.04189699
v -0.0440531 0.128632 0
v 0 0.1726851 0
v 0.03563971 0.128632 0.02589376
v -0.01361316 0.128632 0.04189699
v 0 0.1726851 0
v 0.03563971 0.128632 -0.02589377
v 0.03563971 0.128632 0.02589376
v 0 0.1726851 0
v -0.01361316 0.128632 -0.04189699
v 0.03563971 0.128632 -0.02589377
v 0 0.1726851 0
v -0.0440531 0.128632 0
v -0.01361316 0.128632 -0.04189699

vn -0.809017 0 0.5877852
vn -0.8090171 0 -0.5877852
vn -0.8090171 0 -0.5877852
vn -0.8090171 0 -0.5877852
vn -0.8090171 0 -0.5877852
vn 0.3090169 0 -0.9510565
vn 0.3090169 0 -0.9510565
vn 0.3090169 0 -0.9510565
vn 0.3090169 0 -0.9510565
vn 1 0 -1.438682E-07
vn 1 0 -1.438682E-07
vn 1 0 -1.438682E-07
vn 1 0 -1.438682E-07
vn 0.309017 0 0.9510565
vn 0.309017 0 0.9510565
vn 0.309017 0 0.9510565
vn 0.309017 0 0.9510565
vn -0.809017 0 0.5877852
vn -0.809017 0 0.5877852
vn -0.809017 0 0.5877852
vn -0.809017 0 0.5877852
vn -0.8090171 0 -0.5877852
vn -0.8090171 0 -0.5877852
vn -0.8090171 0 -0.5877852
vn -0.8090171 0 -0.5877852
vn 0.3090169 0 -0.9510565
vn 0.3090169 0 -0.9510565
vn 0.3090169 0 -0.9510565
vn 0.3090169 0 -0.9510565
vn 1 0 -1.438682E-07
vn 1 0 -1.438682E-07
vn 1 0 -1.438682E-07
vn 1 0 -1.438682E-07
vn 0.309017 0 0.9510565
vn 0.309017 0 0.9510565
vn 0.309017 0 0.9510565
vn 0.309017 0 0.9510565
vn -0.809017 0 0.5877852
vn -0.809017 0 0.5877852
vn -0.809017 0 0.5877852
vn -0.809017 0 0.5877852
vn -0.8090171 0 -0.5877852
vn -0.8090171 0 -0.5877852
vn -0.8090171 0 -0.5877852
vn -0.8090171 0 -0.5877852
vn 0.3090169 0 -0.9510565
vn 0.3090169 0 -0.9510565
vn 0.3090169 0 -0.9510565
vn 0.3090169 0 -0.9510565
vn 1 0 -1.438682E-07
vn 1 0 -1.438682E-07
vn 1 0 -1.438682E-07
vn 1 0 -1.438682E-07
vn 0.309017 0 0.9510565
vn 0.309017 0 0.9510565
vn 0.309017 0 0.9510565
vn 0.309017 0 0.9510565
vn -0.809017 0 0.5877852
vn -0.809017 0 0.5877852
vn -0.809017 0 0.5877852
vn -0.809017 0 0.5877852
vn -0.8090171 0 -0.5877852
vn -0.8090171 0 -0.5877852
vn -0.8090171 0 -0.5877852
vn -0.8090171 0 -0.5877852
vn 0.3090169 0 -0.9510565
vn 0.3090169 0 -0.9510565
vn 0.3090169 0 -0.9510565
vn 0.3090169 0 -0.9510565
vn 1 0 -1.438682E-07
vn 1 0 -1.438682E-07
vn 1 0 -1.438682E-07
vn 1 0 -1.438682E-07
vn 0.309017 0 0.9510565
vn 0.309017 0 0.9510565
vn 0.309017 0 0.9510565
vn 0.309017 0 0.9510565
vn -0.809017 0 0.5877852
vn -0.809017 0 0.5877852
vn -0.809017 0 0.5877852
vn -0.809017 0 0.5877852
vn -0.8090171 0 -0.5877852
vn -0.8090171 0 -0.5877852
vn -0.8090171 0 -0.5877852
vn -0.8090171 0 -0.5877852
vn 0.3090169 0 -0.9510565
vn 0.3090169 0 -0.9510565
vn 0.3090169 0 -0.9510565
vn 0.3090169 0 -0.9510565
vn 1 0 -1.438682E-07
vn 1 0 -1.438682E-07
vn 1 0 -1.438682E-07
vn 1 0 -1.438682E-07
vn 0.309017 0 0.9510565
vn 0.309017 0 0.9510565
vn 0.309017 0 0.9510565
vn 0.309017 0 0.9510565
vn -0.809017 0 0.5877852
vn -0.809017 0 0.5877852
vn -0.809017 0 0.5877852
vn -0.809017 0 0.5877852
vn -0.8090171 0 -0.5877852
vn -0.8090171 0 -0.5877852
vn -0.8090171 0 -0.5877852
vn -0.8090171 0 -0.5877852
vn 0.3090169 0 -0.9510565
vn 0.3090169 0 -0.9510565
vn 0.3090169 0 -0.9510565
vn 0.3090169 0 -0.9510565
vn 1 0 -1.438682E-07
vn 1 0 -1.438682E-07
vn 1 0 -1.438682E-07
vn 1 0 -1.438682E-07
vn 0.309017 0 0.9510565
vn 0.309017 0 0.9510565
vn 0.309017 0 0.9510565
vn 0.309017 0 0.9510565
vn -0.809017 0 0.5877852
vn -0.809017 0 0.5877852
vn -0.809017 0 0.5877852
vn -0.809017 0 0.5877852
vn -0.8090171 0 -0.5877852
vn -0.8090171 0 -0.5877852
vn -0.8090171 0 -0.5877852
vn -0.8090171 0 -0.5877852
vn 0.3090169 0 -0.9510565
vn 0.3090169 0 -0.9510565
vn 0.3090169 0 -0.9510565
vn 0.3090169 0 -0.9510565
vn 1 0 -1.438682E-07
vn 1 0 -1.438682E-07
vn 1 0 -1.438682E-07
vn 1 0 -1.438682E-07
vn 0.309017 0 0.9510565
vn 0.309017 0 0.9510565
vn 0.309017 0 0.9510565
vn 0.309017 0 0.9510565
vn -0.809017 0 0.5877852
vn -0.809017 0 0.5877852
vn -0.809017 0 0.5877852
vn -0.809017 0 0.5877852
vn -0.8090171 0 -0.5877852
vn -0.8090171 0 -0.5877852
vn -0.8090171 0 -0.5877852
vn -0.8090171 0 -0.5877852
vn 0.3090169 0 -0.9510565
vn 0.3090169 0 -0.9510565
vn 0.3090169 0 -0.9510565
vn 0.3090169 0 -0.9510565
vn 1 0 -1.438682E-07
vn 1 0 -1.438682E-07
vn 1 0 -1.438682E-07
vn 1 0 -1.438682E-07
vn 0.309017 0 0.9510565
vn 0.309017 0 0.9510565
vn 0.309017 0 0.9510565
vn 0.309017 0 0.9510565
vn -0.809017 0 0.5877852
vn -0.809017 0 0.5877852
vn -0.809017 0 0.5877852
vn -0.809017 0 0.5877852
vn -0.8090171 0 -0.5877852
vn -0.8090171 0 -0.5877852
vn -0.8090171 0 -0.5877852
vn -0.8090171 0 -0.5877852
vn 0.3090169 0 -0.9510565
vn 0.3090169 0 -0.9510565
vn 0.3090169 0 -0.9510565
vn 0.3090169 0 -0.9510565
vn 1 0 -1.438682E-07
vn 1 0 -1.438682E-07
vn 1 0 -1.438682E-07
vn 1 0 -1.438682E-07
vn 0.309017 0 0.9510565
vn 0.309017 0 0.9510565
vn 0.309017 0 0.9510565
vn 0.309017 0 0.9510565
vn -0.809017 0 0.5877852
vn -0.809017 0 0.5877852
vn -0.809017 0 0.5877852
vn -0.809017 0 0.5877852
vn -0.8090171 0 -0.5877852
vn -0.8090171 0 -0.5877852
vn -0.8090171 0 -0.5877852
vn -0.8090171 0 -0.5877852
vn 0.3090169 0 -0.9510565
vn 0.3090169 0 -0.9510565
vn 0.3090169 0 -0.9510565
vn 0.3090169 0 -0.9510565
vn 1 0 -1.438682E-07
vn 1 0 -1.438682E-07
vn 1 0 -1.438682E-07
vn 1 0 -1.438682E-07
vn 0.309017 0 0.9510565
vn 0.309017 0 0.9510565
vn 0.309017 0 0.9510565
vn 0.309017 0 0.9510565
vn -0.809017 0 0.5877852
vn -0.809017 0 0.5877852
vn -0.809017 0 0.5877852
vn -0.809017 0 0.5877852
vn -0.6289602 -0.6289602 -0.4569663
vn -0.6289602 -0.6289602 -0.4569663
vn -0.6289602 -0.6289602 -0.4569663
vn 0.2402413 -0.6289602 -0.739387
vn 0.2402413 -0.6289602 -0.739387
vn 0.2402413 -0.6289602 -0.739387
vn 0.7774375 -0.6289602 -1.118486E-07
vn 0.7774375 -0.6289602 -1.118486E-07
vn 0.7774375 -0.6289602 -1.118486E-07
vn 0.2402414 -0.6289601 0.739387
vn 0.2402414 -0.6289601 0.739387
vn 0.2402414 -0.6289601 0.739387
vn -0.6289602 -0.6289602 0.4569663
vn -0.6289602 -0.6289602 0.4569663
vn -0.6289602 -0.6289602 0.4569663
vn -0.809017 0 0.5877852
vn -0.809017 0 0.5877852
vn -0.809017 0 0.5877852
vn 0.309017 0 0.9510565
vn 0.309017 0 0.9510565
vn 0.309017 0 0.9510565
vn 0.309017 0 0.9510565
vn 1 0 -1.438682E-07
vn 1 0 -1.438682E-07
vn 1 0 -1.438682E-07
vn 1 0 -1.438682E-07
vn 0.3090169 0 -0.9510565
vn 0.3090169 0 -0.9510565
vn 0.3090169 0 -0.9510565
vn 0.3090169 0 -0.9510565
vn -0.8090171 0 -0.5877852
vn -0.8090171 0 -0.5877852
vn -0.8090171 0 -0.5877852
vn -0.8090171 0 -0.5877852
vn -0.809017 0 0.5877852
vn -0.809017 0 0.5877852
vn -0.809017 0 0.5877852
vn -0.809017 0 0.5877852
vn 0.309017 0 0.9510565
vn 0.309017 0 0.9510565
vn 0.309017 0 0.9510565
vn 0.309017 0 0.9510565
vn 1 0 -1.438682E-07
vn 1 0 -1.438682E-07
vn 1 0 -1.438682E-07
vn 1 0 -1.438682E-07
vn 0.3090169 0 -0.9510565
vn 0.3090169 0 -0.9510565
vn 0.3090169 0 -0.9510565
vn 0.3090169 0 -0.9510565
vn -0.8090171 0 -0.5877852
vn -0.8090171 0 -0.5877852
vn -0.8090171 0 -0.5877852
vn -0.8090171 0 -0.5877852
vn -0.6289602 0.6289601 0.4569663
vn -0.6289602 0.6289601 0.4569663
vn -0.6289602 0.6289601 0.4569663
vn 0.2402415 0.6289601 0.739387
vn 0.2402415 0.6289601 0.739387
vn 0.2402415 0.6289601 0.739387
vn 0.7774376 0.6289601 -1.118486E-07
vn 0.7774376 0.6289601 -1.118486E-07
vn 0.7774376 0.6289601 -1.118486E-07
vn 0.2402413 0.6289601 -0.7393871
vn 0.2402413 0.6289601 -0.7393871
vn 0.2402413 0.6289601 -0.7393871
vn -0.6289602 0.6289602 -0.4569663
vn -0.6289602 0.6289602 -0.4569663
vn -0.6289602 0.6289602 -0.4569663

vt 0 0.7857143
vt 1 0.7142857
vt 1 0.7857143
vt 0.8 0.7857143
vt 0.8 0.7142857
vt 0.8 0.7142857
vt 0.8 0.7857143
vt 0.6 0.7857143
vt 0.6 0.7142857
vt 0.6 0.7142857
vt 0.6 0.7857143
vt 0.4 0.7857143
vt 0.4 0.7142857
vt 0.4 0.7142857
vt 0.4 0.7857143
vt 0.2 0.7857143
vt 0.2 0.7142857
vt 0.2 0.7142857
vt 0.2 0.7857143
vt 0 0.7857143
vt 0 0.7142857
vt 1 0.6428571
vt 1 0.7142857
vt 0.8 0.7142857
vt 0.8 0.6428571
vt 0.8 0.6428571
vt 0.8 0.7142857
vt 0.6 0.7142857
vt 0.6 0.6428571
vt 0.6 0.6428571
vt 0.6 0.7142857
vt 0.4 0.7142857
vt 0.4 0.6428571
vt 0.4 0.6428571
vt 0.4 0.7142857
vt 0.2 0.7142857
vt 0.2 0.6428571
vt 0.2 0.6428571
vt 0.2 0.7142857
vt 0 0.7142857
vt 0 0.6428571
vt 1 0.5714286
vt 1 0.6428571
vt 0.8 0.6428571
vt 0.8 0.5714286
vt 0.8 0.5714286
vt 0.8 0.6428571
vt 0.6 0.6428571
vt 0.6 0.5714286
vt 0.6 0.5714286
vt 0.6 0.6428571
vt 0.4 0.6428571
vt 0.4 0.5714286
vt 0.4 0.5714286
vt 0.4 0.6428571
vt 0.2 0.6428571
vt 0.2 0.5714286
vt 0.2 0.5714286
vt 0.2 0.6428571
vt 0 0.6428571
vt 0 0.5714286
vt 1 0.5
vt 1 0.5714286
vt 0.8 0.5714286
vt 0.8 0.5
vt 0.8 0.5
vt 0.8 0.5714286
vt 0.6 0.5714286
vt 0.6 0.5
vt 0.6 0.5
vt 0.6 0.5714286
vt 0.4 0.5714286
vt 0.4 0.5
vt 0.4 0.5
vt 0.4 0.5714286
vt 0.2 0.5714286
vt 0.2 0.5
vt 0.2 0.5
vt 0.2 0.5714286
vt 0 0.5714286
vt 0 0.5
vt 1 0.4285714
vt 1 0.5
vt 0.8 0.5
vt 0.8 0.4285714
vt 0.8 0.4285714
vt 0.8 0.5
vt 0.6 0.5
vt 0.6 0.4285714
vt 0.6 0.4285714
vt 0.6 0.5
vt 0.4 0.5
vt 0.4 0.4285714
vt 0.4 0.4285714
vt 0.4 0.5
vt 0.2 0.5
vt 0.2 0.4285714
vt 0.2 0.4285714
vt 0.2 0.5
vt 0 0.5
vt 0 0.4285714
vt 1 0.3571429
vt 1 0.4285714
vt 0.8 0.4285714
vt 0.8 0.3571429
vt 0.8 0.3571429
vt 0.8 0.4285714
vt 0.6 0.4285714
vt 0.6 0.3571429
vt 0.6 0.3571429
vt 0.6 0.4285714
vt 0.4 0.4285714
vt 0.4 0.3571429
vt 0.4 0.3571429
vt 0.4 0.4285714
vt 0.2 0.4285714
vt 0.2 0.3571429
vt 0.2 0.3571429
vt 0.2 0.4285714
vt 0 0.4285714
vt 0 0.3571429
vt 1 0.2857143
vt 1 0.3571429
vt 0.8 0.3571429
vt 0.8 0.2857143
vt 0.8 0.2857143
vt 0.8 0.3571429
vt 0.6 0.3571429
vt 0.6 0.2857143
vt 0.6 0.2857143
vt 0.6 0.3571429
vt 0.4 0.3571429
vt 0.4 0.2857143
vt 0.4 0.2857143
vt 0.4 0.3571429
vt 0.2 0.3571429
vt 0.2 0.2857143
vt 0.2 0.2857143
vt 0.2 0.3571429
vt 0 0.3571429
vt 0 0.2857143
vt 1 0.2142857
vt 1 0.2857143
vt 0.8 0.2857143
vt 0.8 0.2142857
vt 0.8 0.2142857
vt 0.8 0.2857143
vt 0.6 0.2857143
vt 0.6 0.2142857
vt 0.6 0.2142857
vt 0.6 0.2857143
vt 0.4 0.2857143
vt 0.4 0.2142857
vt 0.4 0.2142857
vt 0.4 0.2857143
vt 0.2 0.2857143
vt 0.2 0.2142857
vt 0.2 0.2142857
vt 0.2 0.2857143
vt 0 0.2857143
vt 0 0.2142857
vt 1 0.1428571
vt 1 0.2142857
vt 0.8 0.2142857
vt 0.8 0.1428571
vt 0.8 0.1428571
vt 0.8 0.2142857
vt 0.6 0.2142857
vt 0.6 0.1428571
vt 0.6 0.1428571
vt 0.6 0.2142857
vt 0.4 0.2142857
vt 0.4 0.1428571
vt 0.4 0.1428571
vt 0.4 0.2142857
vt 0.2 0.2142857
vt 0.2 0.1428571
vt 0.2 0.1428571
vt 0.2 0.2142857
vt 0 0.2142857
vt 0 0.1428571
vt 1 0.07142857
vt 1 0.1428571
vt 0.8 0.1428571
vt 0.8 0.07142857
vt 0.8 0.07142857
vt 0.8 0.1428571
vt 0.6 0.1428571
vt 0.6 0.07142857
vt 0.6 0.07142857
vt 0.6 0.1428571
vt 0.4 0.1428571
vt 0.4 0.07142857
vt 0.4 0.07142857
vt 0.4 0.1428571
vt 0.2 0.1428571
vt 0.2 0.07142857
vt 0.2 0.07142857
vt 0.2 0.1428571
vt 0 0.1428571
vt 0 0.07142857
vt 1 0.07142857
vt 0.8 0.07142857
vt 0.9 0
vt 0.8 0.07142857
vt 0.6 0.07142857
vt 0.7 0
vt 0.6 0.07142857
vt 0.4 0.07142857
vt 0.5 0
vt 0.4 0.07142857
vt 0.2 0.07142857
vt 0.3 0
vt 0.2 0.07142857
vt 0 0.07142857
vt 0.1 0
vt 0 0.8571429
vt 0.2 0.8571429
vt 0.2 0.7857143
vt 0.2 0.7857143
vt 0.2 0.8571429
vt 0.4 0.8571429
vt 0.4 0.7857143
vt 0.4 0.7857143
vt 0.4 0.8571429
vt 0.6 0.8571429
vt 0.6 0.7857143
vt 0.6 0.7857143
vt 0.6 0.8571429
vt 0.8 0.8571429
vt 0.8 0.7857143
vt 0.8 0.7857143
vt 0.8 0.8571429
vt 1 0.8571429
vt 1 0.7857143
vt 0 0.8571429
vt 0 0.9285714
vt 0.2 0.9285714
vt 0.2 0.8571429
vt 0.2 0.8571429
vt 0.2 0.9285714
vt 0.4 0.9285714
vt 0.4 0.8571429
vt 0.4 0.8571429
vt 0.4 0.9285714
vt 0.6 0.9285714
vt 0.6 0.8571429
vt 0.6 0.8571429
vt 0.6 0.9285714
vt 0.8 0.9285714
vt 0.8 0.8571429
vt 0.8 0.8571429
vt 0.8 0.9285714
vt 1 0.9285714
vt 1 0.8571429
vt 0.1 1
vt 0.2 0.9285714
vt 0 0.9285714
vt 0.3 1
vt 0.4 0.9285714
vt 0.2 0.9285714
vt 0.5 1
vt 0.6 0.9285714
vt 0.4 0.9285714
vt 0.7 1
vt 0.8 0.9285714
vt 0.6 0.9285714
vt 0.9 1
vt 1 0.9285714
vt 0.8 0.9285714

usemtl Gem_Material_Test
f 218/218/218 217/217/217 1/1/1 
f 219/219/219 218/218/218 1/1/1 
f 3/3/3 4/4/4 5/5/5 
f 2/2/2 3/3/3 5/5/5 
f 7/7/7 8/8/8 9/9/9 
f 6/6/6 7/7/7 9/9/9 
f 11/11/11 12/12/12 13/13/13 
f 10/10/10 11/11/11 13/13/13 
f 15/15/15 16/16/16 17/17/17 
f 14/14/14 15/15/15 17/17/17 
f 19/19/19 20/20/20 21/21/21 
f 18/18/18 19/19/19 21/21/21 
f 23/23/23 24/24/24 25/25/25 
f 22/22/22 23/23/23 25/25/25 
f 27/27/27 28/28/28 29/29/29 
f 26/26/26 27/27/27 29/29/29 
f 31/31/31 32/32/32 33/33/33 
f 30/30/30 31/31/31 33/33/33 
f 35/35/35 36/36/36 37/37/37 
f 34/34/34 35/35/35 37/37/37 
f 39/39/39 40/40/40 41/41/41 
f 38/38/38 39/39/39 41/41/41 
f 43/43/43 44/44/44 45/45/45 
f 42/42/42 43/43/43 45/45/45 
f 47/47/47 48/48/48 49/49/49 
f 46/46/46 47/47/47 49/49/49 
f 51/51/51 52/52/52 53/53/53 
f 50/50/50 51/51/51 53/53/53 
f 55/55/55 56/56/56 57/57/57 
f 54/54/54 55/55/55 57/57/57 
f 59/59/59 60/60/60 61/61/61 
f 58/58/58 59/59/59 61/61/61 
f 63/63/63 64/64/64 65/65/65 
f 62/62/62 63/63/63 65/65/65 
f 67/67/67 68/68/68 69/69/69 
f 66/66/66 67/67/67 69/69/69 
f 71/71/71 72/72/72 73/73/73 
f 70/70/70 71/71/71 73/73/73 
f 75/75/75 76/76/76 77/77/77 
f 74/74/74 75/75/75 77/77/77 
f 79/79/79 80/80/80 81/81/81 
f 78/78/78 79/79/79 81/81/81 
f 83/83/83 84/84/84 85/85/85 
f 82/82/82 83/83/83 85/85/85 
f 87/87/87 88/88/88 89/89/89 
f 86/86/86 87/87/87 89/89/89 
f 91/91/91 92/92/92 93/93/93 
f 90/90/90 91/91/91 93/93/93 
f 95/95/95 96/96/96 97/97/97 
f 94/94/94 95/95/95 97/97/97 
f 99/99/99 100/100/100 101/101/101 
f 98/98/98 99/99/99 101/101/101 
f 103/103/103 104/104/104 105/105/105 
f 102/102/102 103/103/103 105/105/105 
f 107/107/107 108/108/108 109/109/109 
f 106/106/106 107/107/107 109/109/109 
f 111/111/111 112/112/112 113/113/113 
f 110/110/110 111/111/111 113/113/113 
f 115/115/115 116/116/116 117/117/117 
f 114/114/114 115/115/115 117/117/117 
f 119/119/119 120/120/120 121/121/121 
f 118/118/118 119/119/119 121/121/121 
f 123/123/123 124/124/124 125/125/125 
f 122/122/122 123/123/123 125/125/125 
f 127/127/127 128/128/128 129/129/129 
f 126/126/126 127/127/127 129/129/129 
f 131/131/131 132/132/132 133/133/133 
f 130/130/130 131/131/131 133/133/133 
f 135/135/135 136/136/136 137/137/137 
f 134/134/134 135/135/135 137/137/137 
f 139/139/139 140/140/140 141/141/141 
f 138/138/138 139/139/139 141/141/141 
f 143/143/143 144/144/144 145/145/145 
f 142/142/142 143/143/143 145/145/145 
f 147/147/147 148/148/148 149/149/149 
f 146/146/146 147/147/147 149/149/149 
f 151/151/151 152/152/152 153/153/153 
f 150/150/150 151/151/151 153/153/153 
f 155/155/155 156/156/156 157/157/157 
f 154/154/154 155/155/155 157/157/157 
f 159/159/159 160/160/160 161/161/161 
f 158/158/158 159/159/159 161/161/161 
f 163/163/163 164/164/164 165/165/165 
f 162/162/162 163/163/163 165/165/165 
f 167/167/167 168/168/168 169/169/169 
f 166/166/166 167/167/167 169/169/169 
f 171/171/171 172/172/172 173/173/173 
f 170/170/170 171/171/171 173/173/173 
f 175/175/175 176/176/176 177/177/177 
f 174/174/174 175/175/175 177/177/177 
f 179/179/179 180/180/180 181/181/181 
f 178/178/178 179/179/179 181/181/181 
f 183/183/183 184/184/184 185/185/185 
f 182/182/182 183/183/183 185/185/185 
f 187/187/187 188/188/188 189/189/189 
f 186/186/186 187/187/187 189/189/189 
f 191/191/191 192/192/192 193/193/193 
f 190/190/190 191/191/191 193/193/193 
f 195/195/195 196/196/196 197/197/197 
f 194/194/194 195/195/195 197/197/197 
f 199/199/199 200/200/200 201/201/201 
f 198/198/198 199/199/199 201/201/201 
f 202/202/202 203/203/203 204/204/204 
f 205/205/205 206/206/206 207/207/207 
f 208/208/208 209/209/209 210/210/210 
f 211/211/211 212/212/212 213/213/213 
f 214/214/214 215/215/215 216/216/216 
f 222/222/222 221/221/221 220/220/220 
f 223/223/223 222/222/222 220/220/220 
f 226/226/226 225/225/225 224/224/224 
f 227/227/227 226/226/226 224/224/224 
f 230/230/230 229/229/229 228/228/228 
f 231/231/231 230/230/230 228/228/228 
f 234/234/234 233/233/233 232/232/232 
f 235/235/235 234/234/234 232/232/232 
f 238/238/238 237/237/237 236/236/236 
f 239/239/239 238/238/238 236/236/236 
f 242/242/242 241/241/241 240/240/240 
f 243/243/243 242/242/242 240/240/240 
f 246/246/246 245/245/245 244/244/244 
f 247/247/247 246/246/246 244/244/244 
f 250/250/250 249/249/249 248/248/248 
f 251/251/251 250/250/250 248/248/248 
f 254/254/254 253/253/253 252/252/252 
f 255/255/255 254/254/254 252/252/252 
f 258/258/258 257/257/257 256/256/256 
f 261/261/261 260/260/260 259/259/259 
f 264/264/264 263/263/263 262/262/262 
f 267/267/267 266/266/266 265/265/265 
f 270/270/270 269/269/269 268/268/268 

